M48
; DRILL file {KiCad 7.0.1} date Mon Jan  8 20:06:23 2024
; FORMAT={-:-/ absolute / inch / decimal}
; #@! TF.CreationDate,2024-01-08T20:06:23+01:00
; #@! TF.GenerationSoftware,Kicad,Pcbnew,7.0.1
; #@! TF.FileFunction,Plated,1,2,PTH
FMAT,2
INCH
; #@! TA.AperFunction,Plated,PTH,ComponentDrill
T1C0.0315
; #@! TA.AperFunction,Plated,PTH,ComponentDrill
T2C0.0394
; #@! TA.AperFunction,Plated,PTH,ComponentDrill
T3C0.0400
%
G90
G05
T1
X6.65Y-4.99
X6.65Y-5.39
X6.6535Y-3.7929
X6.6535Y-4.1929
T2
X6.3394Y-3.4969
X6.3394Y-3.5969
X6.3394Y-3.6969
X6.3394Y-3.7969
X6.3394Y-3.8969
X6.3394Y-3.9969
X6.3394Y-4.0969
X6.3394Y-4.1969
X6.3394Y-4.2969
X6.3394Y-4.3969
X6.3394Y-4.4969
X6.3394Y-4.5969
X6.3394Y-4.6969
X6.3394Y-4.7969
X6.3394Y-4.8969
X6.3394Y-4.9969
X6.3394Y-5.0969
X6.4394Y-3.4969
X6.4394Y-3.5969
X6.4394Y-3.6969
X6.4394Y-3.7969
X6.4394Y-3.8969
X6.4394Y-3.9969
X6.4394Y-4.0969
X6.4394Y-4.1969
X6.4394Y-4.2969
X6.4394Y-4.3969
X6.4394Y-4.4969
X6.4394Y-4.5969
X6.4394Y-4.6969
X6.4394Y-4.7969
X6.4394Y-4.8969
X6.4394Y-4.9969
X6.4394Y-5.0969
T3
X6.15Y-5.65
X6.15Y-5.75
X6.25Y-5.65
X6.25Y-5.75
X6.35Y-5.65
X6.35Y-5.75
X6.45Y-5.65
X6.45Y-5.75
X6.55Y-5.65
X6.55Y-5.75
X6.65Y-5.65
X6.65Y-5.75
T0
M30
