%TF.GenerationSoftware,KiCad,Pcbnew,7.0.1*%
%TF.CreationDate,2024-01-08T20:06:19+01:00*%
%TF.ProjectId,pmod-floppy,706d6f64-2d66-46c6-9f70-70792e6b6963,rev?*%
%TF.SameCoordinates,Original*%
%TF.FileFunction,Copper,L1,Top*%
%TF.FilePolarity,Positive*%
%FSLAX46Y46*%
G04 Gerber Fmt 4.6, Leading zero omitted, Abs format (unit mm)*
G04 Created by KiCad (PCBNEW 7.0.1) date 2024-01-08 20:06:19*
%MOMM*%
%LPD*%
G01*
G04 APERTURE LIST*
G04 Aperture macros list*
%AMRoundRect*
0 Rectangle with rounded corners*
0 $1 Rounding radius*
0 $2 $3 $4 $5 $6 $7 $8 $9 X,Y pos of 4 corners*
0 Add a 4 corners polygon primitive as box body*
4,1,4,$2,$3,$4,$5,$6,$7,$8,$9,$2,$3,0*
0 Add four circle primitives for the rounded corners*
1,1,$1+$1,$2,$3*
1,1,$1+$1,$4,$5*
1,1,$1+$1,$6,$7*
1,1,$1+$1,$8,$9*
0 Add four rect primitives between the rounded corners*
20,1,$1+$1,$2,$3,$4,$5,0*
20,1,$1+$1,$4,$5,$6,$7,0*
20,1,$1+$1,$6,$7,$8,$9,0*
20,1,$1+$1,$8,$9,$2,$3,0*%
G04 Aperture macros list end*
%TA.AperFunction,ComponentPad*%
%ADD10C,1.600000*%
%TD*%
%TA.AperFunction,ComponentPad*%
%ADD11O,1.600000X1.600000*%
%TD*%
%TA.AperFunction,ComponentPad*%
%ADD12R,1.524000X1.524000*%
%TD*%
%TA.AperFunction,ComponentPad*%
%ADD13C,1.524000*%
%TD*%
%TA.AperFunction,ComponentPad*%
%ADD14RoundRect,0.250000X-0.600000X-0.600000X0.600000X-0.600000X0.600000X0.600000X-0.600000X0.600000X0*%
%TD*%
%TA.AperFunction,ComponentPad*%
%ADD15C,1.700000*%
%TD*%
%TA.AperFunction,Conductor*%
%ADD16C,0.250000*%
%TD*%
%TA.AperFunction,Conductor*%
%ADD17C,1.000000*%
%TD*%
G04 APERTURE END LIST*
D10*
%TO.P,R2,1*%
%TO.N,/Index*%
X169000000Y-96340000D03*
D11*
%TO.P,R2,2*%
%TO.N,+3.3V*%
X169000000Y-106500000D03*
%TD*%
D12*
%TO.P,PMOD1,1,IOA0*%
%TO.N,/Index*%
X156210000Y-143510000D03*
D13*
%TO.P,PMOD1,2,IOA1*%
%TO.N,/Motor on*%
X158750000Y-143510000D03*
%TO.P,PMOD1,3,IOA2*%
%TO.N,/Direction Select*%
X161290000Y-143510000D03*
%TO.P,PMOD1,4,IOA3*%
%TO.N,/Step*%
X163830000Y-143510000D03*
%TO.P,PMOD1,5,GND*%
%TO.N,GND*%
X166370000Y-143510000D03*
%TO.P,PMOD1,6,VCC*%
%TO.N,+3.3V*%
X168910000Y-143510000D03*
%TO.P,PMOD1,7,IOB0*%
%TO.N,/Write Data*%
X156210000Y-146050000D03*
%TO.P,PMOD1,8,IOB1*%
%TO.N,/Write Gate*%
X158750000Y-146050000D03*
%TO.P,PMOD1,9,IOB2*%
%TO.N,/Read Data*%
X161290000Y-146050000D03*
%TO.P,PMOD1,10,IOB3*%
%TO.N,/Side Select*%
X163830000Y-146050000D03*
%TO.P,PMOD1,11,GND*%
%TO.N,GND*%
X166370000Y-146050000D03*
%TO.P,PMOD1,12,VCC*%
%TO.N,+3.3V*%
X168910000Y-146050000D03*
%TD*%
D10*
%TO.P,R1,1*%
%TO.N,/Read Data*%
X168910000Y-126746000D03*
D11*
%TO.P,R1,2*%
%TO.N,+3.3V*%
X168910000Y-136906000D03*
%TD*%
D14*
%TO.P,J1,1,GND*%
%TO.N,GND*%
X161020000Y-88820000D03*
D15*
%TO.P,J1,2,Density_Select*%
%TO.N,unconnected-(J1-Density_Select-Pad2)*%
X163560000Y-88820000D03*
%TO.P,J1,3,GND*%
%TO.N,GND*%
X161020000Y-91360000D03*
%TO.P,J1,4,In_Use*%
%TO.N,unconnected-(J1-In_Use-Pad4)*%
X163560000Y-91360000D03*
%TO.P,J1,5,GND*%
%TO.N,GND*%
X161020000Y-93900000D03*
%TO.P,J1,6,Drive_Select_3*%
%TO.N,unconnected-(J1-Drive_Select_3-Pad6)*%
X163560000Y-93900000D03*
%TO.P,J1,7,GND*%
%TO.N,GND*%
X161020000Y-96440000D03*
%TO.P,J1,8,Index*%
%TO.N,/Index*%
X163560000Y-96440000D03*
%TO.P,J1,9,GND*%
%TO.N,GND*%
X161020000Y-98980000D03*
%TO.P,J1,10,Drive_Select_0*%
%TO.N,unconnected-(J1-Drive_Select_0-Pad10)*%
X163560000Y-98980000D03*
%TO.P,J1,11,GND*%
%TO.N,GND*%
X161020000Y-101520000D03*
%TO.P,J1,12,Drive_Select_1*%
X163560000Y-101520000D03*
%TO.P,J1,13,GND*%
X161020000Y-104060000D03*
%TO.P,J1,14,Drive_Select_2*%
%TO.N,unconnected-(J1-Drive_Select_2-Pad14)*%
X163560000Y-104060000D03*
%TO.P,J1,15,GND*%
%TO.N,GND*%
X161020000Y-106600000D03*
%TO.P,J1,16,Motor_On*%
%TO.N,/Motor on*%
X163560000Y-106600000D03*
%TO.P,J1,17,GND*%
%TO.N,GND*%
X161020000Y-109140000D03*
%TO.P,J1,18,Direction_Select*%
%TO.N,/Direction Select*%
X163560000Y-109140000D03*
%TO.P,J1,19,GND*%
%TO.N,GND*%
X161020000Y-111680000D03*
%TO.P,J1,20,Step*%
%TO.N,/Step*%
X163560000Y-111680000D03*
%TO.P,J1,21,GND*%
%TO.N,GND*%
X161020000Y-114220000D03*
%TO.P,J1,22,Write_Data*%
%TO.N,/Write Data*%
X163560000Y-114220000D03*
%TO.P,J1,23,GND*%
%TO.N,GND*%
X161020000Y-116760000D03*
%TO.P,J1,24,Write_Gate*%
%TO.N,/Write Gate*%
X163560000Y-116760000D03*
%TO.P,J1,25,GND*%
%TO.N,GND*%
X161020000Y-119300000D03*
%TO.P,J1,26,Track_00*%
%TO.N,unconnected-(J1-Track_00-Pad26)*%
X163560000Y-119300000D03*
%TO.P,J1,27,GND*%
%TO.N,GND*%
X161020000Y-121840000D03*
%TO.P,J1,28,Write_Protect*%
%TO.N,unconnected-(J1-Write_Protect-Pad28)*%
X163560000Y-121840000D03*
%TO.P,J1,29,GND*%
%TO.N,GND*%
X161020000Y-124380000D03*
%TO.P,J1,30,Read_Data*%
%TO.N,/Read Data*%
X163560000Y-124380000D03*
%TO.P,J1,31,GND*%
%TO.N,GND*%
X161020000Y-126920000D03*
%TO.P,J1,32,Side_Select*%
%TO.N,/Side Select*%
X163560000Y-126920000D03*
%TO.P,J1,33,GND*%
%TO.N,GND*%
X161020000Y-129460000D03*
%TO.P,J1,34,Ready/Disk_Change*%
%TO.N,unconnected-(J1-Ready{slash}Disk_Change-Pad34)*%
X163560000Y-129460000D03*
%TD*%
D16*
%TO.N,+3.3V*%
X168910000Y-146050000D02*
X168910000Y-143510000D01*
X168910000Y-143510000D02*
X168910000Y-136906000D01*
X170052100Y-108679000D02*
X169000000Y-107626900D01*
X170052100Y-134637000D02*
X170052100Y-108679000D01*
X168910000Y-135779100D02*
X170052100Y-134637000D01*
X168910000Y-136906000D02*
X168910000Y-135779100D01*
X169000000Y-106500000D02*
X169000000Y-107626900D01*
%TO.N,/Read Data*%
X162560000Y-144780000D02*
X161290000Y-146050000D01*
X162560000Y-132143100D02*
X162560000Y-144780000D01*
X164737900Y-129965200D02*
X162560000Y-132143100D01*
X164737900Y-125557900D02*
X164737900Y-129965200D01*
X163560000Y-124380000D02*
X164737900Y-125557900D01*
%TO.N,/Write Data*%
X157320700Y-144939300D02*
X156210000Y-146050000D01*
X157320700Y-135747200D02*
X157320700Y-144939300D01*
X162290000Y-130777900D02*
X157320700Y-135747200D01*
X162290000Y-115490000D02*
X162290000Y-130777900D01*
X163560000Y-114220000D02*
X162290000Y-115490000D01*
%TO.N,/Step*%
X165189800Y-113309800D02*
X163560000Y-111680000D01*
X165189800Y-142150200D02*
X165189800Y-113309800D01*
X163830000Y-143510000D02*
X165189800Y-142150200D01*
D17*
%TO.N,GND*%
X161020000Y-129460000D02*
X161020000Y-126920000D01*
X161020000Y-126920000D02*
X161020000Y-124380000D01*
X161020000Y-124380000D02*
X161020000Y-121840000D01*
X161020000Y-121840000D02*
X161020000Y-119300000D01*
X161020000Y-119300000D02*
X161020000Y-116760000D01*
X161020000Y-116760000D02*
X161020000Y-114220000D01*
X161020000Y-114220000D02*
X161020000Y-111680000D01*
X161020000Y-111680000D02*
X161020000Y-109140000D01*
X161020000Y-109140000D02*
X161020000Y-106600000D01*
X161020000Y-106600000D02*
X161020000Y-104060000D01*
X161020000Y-101520000D02*
X161020000Y-98980000D01*
X161020000Y-98980000D02*
X161020000Y-96440000D01*
X161020000Y-96440000D02*
X161020000Y-93900000D01*
X161020000Y-93900000D02*
X161020000Y-91360000D01*
X161020000Y-91360000D02*
X161020000Y-88820000D01*
X166370000Y-146050000D02*
X166370000Y-143510000D01*
%TD*%
M02*
