%TF.GenerationSoftware,KiCad,Pcbnew,7.0.1*%
%TF.CreationDate,2024-01-08T20:06:19+01:00*%
%TF.ProjectId,pmod-floppy,706d6f64-2d66-46c6-9f70-70792e6b6963,rev?*%
%TF.SameCoordinates,Original*%
%TF.FileFunction,Soldermask,Bot*%
%TF.FilePolarity,Negative*%
%FSLAX46Y46*%
G04 Gerber Fmt 4.6, Leading zero omitted, Abs format (unit mm)*
G04 Created by KiCad (PCBNEW 7.0.1) date 2024-01-08 20:06:19*
%MOMM*%
%LPD*%
G01*
G04 APERTURE LIST*
G04 Aperture macros list*
%AMRoundRect*
0 Rectangle with rounded corners*
0 $1 Rounding radius*
0 $2 $3 $4 $5 $6 $7 $8 $9 X,Y pos of 4 corners*
0 Add a 4 corners polygon primitive as box body*
4,1,4,$2,$3,$4,$5,$6,$7,$8,$9,$2,$3,0*
0 Add four circle primitives for the rounded corners*
1,1,$1+$1,$2,$3*
1,1,$1+$1,$4,$5*
1,1,$1+$1,$6,$7*
1,1,$1+$1,$8,$9*
0 Add four rect primitives between the rounded corners*
20,1,$1+$1,$2,$3,$4,$5,0*
20,1,$1+$1,$4,$5,$6,$7,0*
20,1,$1+$1,$6,$7,$8,$9,0*
20,1,$1+$1,$8,$9,$2,$3,0*%
G04 Aperture macros list end*
%ADD10C,1.600000*%
%ADD11O,1.600000X1.600000*%
%ADD12R,1.524000X1.524000*%
%ADD13C,1.524000*%
%ADD14RoundRect,0.250000X-0.600000X-0.600000X0.600000X-0.600000X0.600000X0.600000X-0.600000X0.600000X0*%
%ADD15C,1.700000*%
G04 APERTURE END LIST*
D10*
%TO.C,R2*%
X169000000Y-96340000D03*
D11*
X169000000Y-106500000D03*
%TD*%
D12*
%TO.C,PMOD1*%
X156210000Y-143510000D03*
D13*
X158750000Y-143510000D03*
X161290000Y-143510000D03*
X163830000Y-143510000D03*
X166370000Y-143510000D03*
X168910000Y-143510000D03*
X156210000Y-146050000D03*
X158750000Y-146050000D03*
X161290000Y-146050000D03*
X163830000Y-146050000D03*
X166370000Y-146050000D03*
X168910000Y-146050000D03*
%TD*%
D10*
%TO.C,R1*%
X168910000Y-126746000D03*
D11*
X168910000Y-136906000D03*
%TD*%
D14*
%TO.C,J1*%
X161020000Y-88820000D03*
D15*
X163560000Y-88820000D03*
X161020000Y-91360000D03*
X163560000Y-91360000D03*
X161020000Y-93900000D03*
X163560000Y-93900000D03*
X161020000Y-96440000D03*
X163560000Y-96440000D03*
X161020000Y-98980000D03*
X163560000Y-98980000D03*
X161020000Y-101520000D03*
X163560000Y-101520000D03*
X161020000Y-104060000D03*
X163560000Y-104060000D03*
X161020000Y-106600000D03*
X163560000Y-106600000D03*
X161020000Y-109140000D03*
X163560000Y-109140000D03*
X161020000Y-111680000D03*
X163560000Y-111680000D03*
X161020000Y-114220000D03*
X163560000Y-114220000D03*
X161020000Y-116760000D03*
X163560000Y-116760000D03*
X161020000Y-119300000D03*
X163560000Y-119300000D03*
X161020000Y-121840000D03*
X163560000Y-121840000D03*
X161020000Y-124380000D03*
X163560000Y-124380000D03*
X161020000Y-126920000D03*
X163560000Y-126920000D03*
X161020000Y-129460000D03*
X163560000Y-129460000D03*
%TD*%
M02*
