%TF.GenerationSoftware,KiCad,Pcbnew,7.0.1*%
%TF.CreationDate,2024-01-08T20:06:19+01:00*%
%TF.ProjectId,pmod-floppy,706d6f64-2d66-46c6-9f70-70792e6b6963,rev?*%
%TF.SameCoordinates,Original*%
%TF.FileFunction,Legend,Top*%
%TF.FilePolarity,Positive*%
%FSLAX46Y46*%
G04 Gerber Fmt 4.6, Leading zero omitted, Abs format (unit mm)*
G04 Created by KiCad (PCBNEW 7.0.1) date 2024-01-08 20:06:19*
%MOMM*%
%LPD*%
G01*
G04 APERTURE LIST*
%ADD10C,0.150000*%
%ADD11C,0.254000*%
%ADD12C,0.010000*%
%ADD13C,0.120000*%
%ADD14C,0.304800*%
%ADD15R,1.524000X1.524000*%
%ADD16C,1.524000*%
G04 APERTURE END LIST*
D10*
X169460952Y-91357142D02*
X169460952Y-90833333D01*
X169460952Y-90833333D02*
X170127619Y-91357142D01*
X170127619Y-91357142D02*
X170127619Y-90833333D01*
X170080000Y-90071428D02*
X170127619Y-90166666D01*
X170127619Y-90166666D02*
X170127619Y-90357142D01*
X170127619Y-90357142D02*
X170080000Y-90452380D01*
X170080000Y-90452380D02*
X169984761Y-90499999D01*
X169984761Y-90499999D02*
X169603809Y-90499999D01*
X169603809Y-90499999D02*
X169508571Y-90452380D01*
X169508571Y-90452380D02*
X169460952Y-90357142D01*
X169460952Y-90357142D02*
X169460952Y-90166666D01*
X169460952Y-90166666D02*
X169508571Y-90071428D01*
X169508571Y-90071428D02*
X169603809Y-90023809D01*
X169603809Y-90023809D02*
X169699047Y-90023809D01*
X169699047Y-90023809D02*
X169794285Y-90499999D01*
X170127619Y-89595237D02*
X169460952Y-89595237D01*
X169651428Y-89595237D02*
X169556190Y-89547618D01*
X169556190Y-89547618D02*
X169508571Y-89499999D01*
X169508571Y-89499999D02*
X169460952Y-89404761D01*
X169460952Y-89404761D02*
X169460952Y-89309523D01*
X170127619Y-88833332D02*
X170080000Y-88928570D01*
X170080000Y-88928570D02*
X170032380Y-88976189D01*
X170032380Y-88976189D02*
X169937142Y-89023808D01*
X169937142Y-89023808D02*
X169651428Y-89023808D01*
X169651428Y-89023808D02*
X169556190Y-88976189D01*
X169556190Y-88976189D02*
X169508571Y-88928570D01*
X169508571Y-88928570D02*
X169460952Y-88833332D01*
X169460952Y-88833332D02*
X169460952Y-88690475D01*
X169460952Y-88690475D02*
X169508571Y-88595237D01*
X169508571Y-88595237D02*
X169556190Y-88547618D01*
X169556190Y-88547618D02*
X169651428Y-88499999D01*
X169651428Y-88499999D02*
X169937142Y-88499999D01*
X169937142Y-88499999D02*
X170032380Y-88547618D01*
X170032380Y-88547618D02*
X170080000Y-88595237D01*
X170080000Y-88595237D02*
X170127619Y-88690475D01*
X170127619Y-88690475D02*
X170127619Y-88833332D01*
X170127619Y-88071427D02*
X169460952Y-88071427D01*
X169556190Y-88071427D02*
X169508571Y-88023808D01*
X169508571Y-88023808D02*
X169460952Y-87928570D01*
X169460952Y-87928570D02*
X169460952Y-87785713D01*
X169460952Y-87785713D02*
X169508571Y-87690475D01*
X169508571Y-87690475D02*
X169603809Y-87642856D01*
X169603809Y-87642856D02*
X170127619Y-87642856D01*
X169603809Y-87642856D02*
X169508571Y-87595237D01*
X169508571Y-87595237D02*
X169460952Y-87499999D01*
X169460952Y-87499999D02*
X169460952Y-87357142D01*
X169460952Y-87357142D02*
X169508571Y-87261903D01*
X169508571Y-87261903D02*
X169603809Y-87214284D01*
X169603809Y-87214284D02*
X170127619Y-87214284D01*
X170127619Y-86738094D02*
X169460952Y-86738094D01*
X169127619Y-86738094D02*
X169175238Y-86785713D01*
X169175238Y-86785713D02*
X169222857Y-86738094D01*
X169222857Y-86738094D02*
X169175238Y-86690475D01*
X169175238Y-86690475D02*
X169127619Y-86738094D01*
X169127619Y-86738094D02*
X169222857Y-86738094D01*
X169460952Y-86261904D02*
X170460952Y-86261904D01*
X169508571Y-86261904D02*
X169460952Y-86166666D01*
X169460952Y-86166666D02*
X169460952Y-85976190D01*
X169460952Y-85976190D02*
X169508571Y-85880952D01*
X169508571Y-85880952D02*
X169556190Y-85833333D01*
X169556190Y-85833333D02*
X169651428Y-85785714D01*
X169651428Y-85785714D02*
X169937142Y-85785714D01*
X169937142Y-85785714D02*
X170032380Y-85833333D01*
X170032380Y-85833333D02*
X170080000Y-85880952D01*
X170080000Y-85880952D02*
X170127619Y-85976190D01*
X170127619Y-85976190D02*
X170127619Y-86166666D01*
X170127619Y-86166666D02*
X170080000Y-86261904D01*
X170080000Y-85404761D02*
X170127619Y-85309523D01*
X170127619Y-85309523D02*
X170127619Y-85119047D01*
X170127619Y-85119047D02*
X170080000Y-85023809D01*
X170080000Y-85023809D02*
X169984761Y-84976190D01*
X169984761Y-84976190D02*
X169937142Y-84976190D01*
X169937142Y-84976190D02*
X169841904Y-85023809D01*
X169841904Y-85023809D02*
X169794285Y-85119047D01*
X169794285Y-85119047D02*
X169794285Y-85261904D01*
X169794285Y-85261904D02*
X169746666Y-85357142D01*
X169746666Y-85357142D02*
X169651428Y-85404761D01*
X169651428Y-85404761D02*
X169603809Y-85404761D01*
X169603809Y-85404761D02*
X169508571Y-85357142D01*
X169508571Y-85357142D02*
X169460952Y-85261904D01*
X169460952Y-85261904D02*
X169460952Y-85119047D01*
X169460952Y-85119047D02*
X169508571Y-85023809D01*
X170032380Y-84547618D02*
X170080000Y-84499999D01*
X170080000Y-84499999D02*
X170127619Y-84547618D01*
X170127619Y-84547618D02*
X170080000Y-84595237D01*
X170080000Y-84595237D02*
X170032380Y-84547618D01*
X170032380Y-84547618D02*
X170127619Y-84547618D01*
X170127619Y-83928571D02*
X170080000Y-84023809D01*
X170080000Y-84023809D02*
X170032380Y-84071428D01*
X170032380Y-84071428D02*
X169937142Y-84119047D01*
X169937142Y-84119047D02*
X169651428Y-84119047D01*
X169651428Y-84119047D02*
X169556190Y-84071428D01*
X169556190Y-84071428D02*
X169508571Y-84023809D01*
X169508571Y-84023809D02*
X169460952Y-83928571D01*
X169460952Y-83928571D02*
X169460952Y-83785714D01*
X169460952Y-83785714D02*
X169508571Y-83690476D01*
X169508571Y-83690476D02*
X169556190Y-83642857D01*
X169556190Y-83642857D02*
X169651428Y-83595238D01*
X169651428Y-83595238D02*
X169937142Y-83595238D01*
X169937142Y-83595238D02*
X170032380Y-83642857D01*
X170032380Y-83642857D02*
X170080000Y-83690476D01*
X170080000Y-83690476D02*
X170127619Y-83785714D01*
X170127619Y-83785714D02*
X170127619Y-83928571D01*
X170127619Y-83166666D02*
X169460952Y-83166666D01*
X169651428Y-83166666D02*
X169556190Y-83119047D01*
X169556190Y-83119047D02*
X169508571Y-83071428D01*
X169508571Y-83071428D02*
X169460952Y-82976190D01*
X169460952Y-82976190D02*
X169460952Y-82880952D01*
X169460952Y-82119047D02*
X170270476Y-82119047D01*
X170270476Y-82119047D02*
X170365714Y-82166666D01*
X170365714Y-82166666D02*
X170413333Y-82214285D01*
X170413333Y-82214285D02*
X170460952Y-82309523D01*
X170460952Y-82309523D02*
X170460952Y-82452380D01*
X170460952Y-82452380D02*
X170413333Y-82547618D01*
X170080000Y-82119047D02*
X170127619Y-82214285D01*
X170127619Y-82214285D02*
X170127619Y-82404761D01*
X170127619Y-82404761D02*
X170080000Y-82499999D01*
X170080000Y-82499999D02*
X170032380Y-82547618D01*
X170032380Y-82547618D02*
X169937142Y-82595237D01*
X169937142Y-82595237D02*
X169651428Y-82595237D01*
X169651428Y-82595237D02*
X169556190Y-82547618D01*
X169556190Y-82547618D02*
X169508571Y-82499999D01*
X169508571Y-82499999D02*
X169460952Y-82404761D01*
X169460952Y-82404761D02*
X169460952Y-82214285D01*
X169460952Y-82214285D02*
X169508571Y-82119047D01*
X155627619Y-104011904D02*
X154627619Y-104011904D01*
X154627619Y-104011904D02*
X154627619Y-103630952D01*
X154627619Y-103630952D02*
X154675238Y-103535714D01*
X154675238Y-103535714D02*
X154722857Y-103488095D01*
X154722857Y-103488095D02*
X154818095Y-103440476D01*
X154818095Y-103440476D02*
X154960952Y-103440476D01*
X154960952Y-103440476D02*
X155056190Y-103488095D01*
X155056190Y-103488095D02*
X155103809Y-103535714D01*
X155103809Y-103535714D02*
X155151428Y-103630952D01*
X155151428Y-103630952D02*
X155151428Y-104011904D01*
X155627619Y-103011904D02*
X154960952Y-103011904D01*
X155056190Y-103011904D02*
X155008571Y-102964285D01*
X155008571Y-102964285D02*
X154960952Y-102869047D01*
X154960952Y-102869047D02*
X154960952Y-102726190D01*
X154960952Y-102726190D02*
X155008571Y-102630952D01*
X155008571Y-102630952D02*
X155103809Y-102583333D01*
X155103809Y-102583333D02*
X155627619Y-102583333D01*
X155103809Y-102583333D02*
X155008571Y-102535714D01*
X155008571Y-102535714D02*
X154960952Y-102440476D01*
X154960952Y-102440476D02*
X154960952Y-102297619D01*
X154960952Y-102297619D02*
X155008571Y-102202380D01*
X155008571Y-102202380D02*
X155103809Y-102154761D01*
X155103809Y-102154761D02*
X155627619Y-102154761D01*
X155627619Y-101535714D02*
X155580000Y-101630952D01*
X155580000Y-101630952D02*
X155532380Y-101678571D01*
X155532380Y-101678571D02*
X155437142Y-101726190D01*
X155437142Y-101726190D02*
X155151428Y-101726190D01*
X155151428Y-101726190D02*
X155056190Y-101678571D01*
X155056190Y-101678571D02*
X155008571Y-101630952D01*
X155008571Y-101630952D02*
X154960952Y-101535714D01*
X154960952Y-101535714D02*
X154960952Y-101392857D01*
X154960952Y-101392857D02*
X155008571Y-101297619D01*
X155008571Y-101297619D02*
X155056190Y-101250000D01*
X155056190Y-101250000D02*
X155151428Y-101202381D01*
X155151428Y-101202381D02*
X155437142Y-101202381D01*
X155437142Y-101202381D02*
X155532380Y-101250000D01*
X155532380Y-101250000D02*
X155580000Y-101297619D01*
X155580000Y-101297619D02*
X155627619Y-101392857D01*
X155627619Y-101392857D02*
X155627619Y-101535714D01*
X155627619Y-100345238D02*
X154627619Y-100345238D01*
X155580000Y-100345238D02*
X155627619Y-100440476D01*
X155627619Y-100440476D02*
X155627619Y-100630952D01*
X155627619Y-100630952D02*
X155580000Y-100726190D01*
X155580000Y-100726190D02*
X155532380Y-100773809D01*
X155532380Y-100773809D02*
X155437142Y-100821428D01*
X155437142Y-100821428D02*
X155151428Y-100821428D01*
X155151428Y-100821428D02*
X155056190Y-100773809D01*
X155056190Y-100773809D02*
X155008571Y-100726190D01*
X155008571Y-100726190D02*
X154960952Y-100630952D01*
X154960952Y-100630952D02*
X154960952Y-100440476D01*
X154960952Y-100440476D02*
X155008571Y-100345238D01*
X155103809Y-98773809D02*
X155103809Y-99107142D01*
X155627619Y-99107142D02*
X154627619Y-99107142D01*
X154627619Y-99107142D02*
X154627619Y-98630952D01*
X155627619Y-97773809D02*
X155627619Y-98249999D01*
X155627619Y-98249999D02*
X154627619Y-98249999D01*
X154627619Y-97249999D02*
X154627619Y-97059523D01*
X154627619Y-97059523D02*
X154675238Y-96964285D01*
X154675238Y-96964285D02*
X154770476Y-96869047D01*
X154770476Y-96869047D02*
X154960952Y-96821428D01*
X154960952Y-96821428D02*
X155294285Y-96821428D01*
X155294285Y-96821428D02*
X155484761Y-96869047D01*
X155484761Y-96869047D02*
X155580000Y-96964285D01*
X155580000Y-96964285D02*
X155627619Y-97059523D01*
X155627619Y-97059523D02*
X155627619Y-97249999D01*
X155627619Y-97249999D02*
X155580000Y-97345237D01*
X155580000Y-97345237D02*
X155484761Y-97440475D01*
X155484761Y-97440475D02*
X155294285Y-97488094D01*
X155294285Y-97488094D02*
X154960952Y-97488094D01*
X154960952Y-97488094D02*
X154770476Y-97440475D01*
X154770476Y-97440475D02*
X154675238Y-97345237D01*
X154675238Y-97345237D02*
X154627619Y-97249999D01*
X155627619Y-96392856D02*
X154627619Y-96392856D01*
X154627619Y-96392856D02*
X154627619Y-96011904D01*
X154627619Y-96011904D02*
X154675238Y-95916666D01*
X154675238Y-95916666D02*
X154722857Y-95869047D01*
X154722857Y-95869047D02*
X154818095Y-95821428D01*
X154818095Y-95821428D02*
X154960952Y-95821428D01*
X154960952Y-95821428D02*
X155056190Y-95869047D01*
X155056190Y-95869047D02*
X155103809Y-95916666D01*
X155103809Y-95916666D02*
X155151428Y-96011904D01*
X155151428Y-96011904D02*
X155151428Y-96392856D01*
X155627619Y-95392856D02*
X154627619Y-95392856D01*
X154627619Y-95392856D02*
X154627619Y-95011904D01*
X154627619Y-95011904D02*
X154675238Y-94916666D01*
X154675238Y-94916666D02*
X154722857Y-94869047D01*
X154722857Y-94869047D02*
X154818095Y-94821428D01*
X154818095Y-94821428D02*
X154960952Y-94821428D01*
X154960952Y-94821428D02*
X155056190Y-94869047D01*
X155056190Y-94869047D02*
X155103809Y-94916666D01*
X155103809Y-94916666D02*
X155151428Y-95011904D01*
X155151428Y-95011904D02*
X155151428Y-95392856D01*
X155151428Y-94202380D02*
X155627619Y-94202380D01*
X154627619Y-94535713D02*
X155151428Y-94202380D01*
X155151428Y-94202380D02*
X154627619Y-93869047D01*
%TO.C,R2*%
X171832619Y-101586666D02*
X171356428Y-101919999D01*
X171832619Y-102158094D02*
X170832619Y-102158094D01*
X170832619Y-102158094D02*
X170832619Y-101777142D01*
X170832619Y-101777142D02*
X170880238Y-101681904D01*
X170880238Y-101681904D02*
X170927857Y-101634285D01*
X170927857Y-101634285D02*
X171023095Y-101586666D01*
X171023095Y-101586666D02*
X171165952Y-101586666D01*
X171165952Y-101586666D02*
X171261190Y-101634285D01*
X171261190Y-101634285D02*
X171308809Y-101681904D01*
X171308809Y-101681904D02*
X171356428Y-101777142D01*
X171356428Y-101777142D02*
X171356428Y-102158094D01*
X170927857Y-101205713D02*
X170880238Y-101158094D01*
X170880238Y-101158094D02*
X170832619Y-101062856D01*
X170832619Y-101062856D02*
X170832619Y-100824761D01*
X170832619Y-100824761D02*
X170880238Y-100729523D01*
X170880238Y-100729523D02*
X170927857Y-100681904D01*
X170927857Y-100681904D02*
X171023095Y-100634285D01*
X171023095Y-100634285D02*
X171118333Y-100634285D01*
X171118333Y-100634285D02*
X171261190Y-100681904D01*
X171261190Y-100681904D02*
X171832619Y-101253332D01*
X171832619Y-101253332D02*
X171832619Y-100634285D01*
D11*
%TO.C,PMOD1*%
X154394020Y-147912666D02*
X153378020Y-147912666D01*
X153378020Y-147912666D02*
X153378020Y-147525618D01*
X153378020Y-147525618D02*
X153426401Y-147428856D01*
X153426401Y-147428856D02*
X153474782Y-147380475D01*
X153474782Y-147380475D02*
X153571544Y-147332094D01*
X153571544Y-147332094D02*
X153716687Y-147332094D01*
X153716687Y-147332094D02*
X153813449Y-147380475D01*
X153813449Y-147380475D02*
X153861830Y-147428856D01*
X153861830Y-147428856D02*
X153910211Y-147525618D01*
X153910211Y-147525618D02*
X153910211Y-147912666D01*
X154394020Y-146896666D02*
X153378020Y-146896666D01*
X153378020Y-146896666D02*
X154103735Y-146557999D01*
X154103735Y-146557999D02*
X153378020Y-146219332D01*
X153378020Y-146219332D02*
X154394020Y-146219332D01*
X153378020Y-145541999D02*
X153378020Y-145348475D01*
X153378020Y-145348475D02*
X153426401Y-145251713D01*
X153426401Y-145251713D02*
X153523163Y-145154951D01*
X153523163Y-145154951D02*
X153716687Y-145106570D01*
X153716687Y-145106570D02*
X154055354Y-145106570D01*
X154055354Y-145106570D02*
X154248878Y-145154951D01*
X154248878Y-145154951D02*
X154345640Y-145251713D01*
X154345640Y-145251713D02*
X154394020Y-145348475D01*
X154394020Y-145348475D02*
X154394020Y-145541999D01*
X154394020Y-145541999D02*
X154345640Y-145638761D01*
X154345640Y-145638761D02*
X154248878Y-145735523D01*
X154248878Y-145735523D02*
X154055354Y-145783904D01*
X154055354Y-145783904D02*
X153716687Y-145783904D01*
X153716687Y-145783904D02*
X153523163Y-145735523D01*
X153523163Y-145735523D02*
X153426401Y-145638761D01*
X153426401Y-145638761D02*
X153378020Y-145541999D01*
X154394020Y-144671142D02*
X153378020Y-144671142D01*
X153378020Y-144671142D02*
X153378020Y-144429237D01*
X153378020Y-144429237D02*
X153426401Y-144284094D01*
X153426401Y-144284094D02*
X153523163Y-144187332D01*
X153523163Y-144187332D02*
X153619925Y-144138951D01*
X153619925Y-144138951D02*
X153813449Y-144090570D01*
X153813449Y-144090570D02*
X153958592Y-144090570D01*
X153958592Y-144090570D02*
X154152116Y-144138951D01*
X154152116Y-144138951D02*
X154248878Y-144187332D01*
X154248878Y-144187332D02*
X154345640Y-144284094D01*
X154345640Y-144284094D02*
X154394020Y-144429237D01*
X154394020Y-144429237D02*
X154394020Y-144671142D01*
X154394020Y-143122951D02*
X154394020Y-143703523D01*
X154394020Y-143413237D02*
X153378020Y-143413237D01*
X153378020Y-143413237D02*
X153523163Y-143509999D01*
X153523163Y-143509999D02*
X153619925Y-143606761D01*
X153619925Y-143606761D02*
X153668306Y-143703523D01*
D10*
X165880238Y-141223904D02*
X165832619Y-141319142D01*
X165832619Y-141319142D02*
X165832619Y-141461999D01*
X165832619Y-141461999D02*
X165880238Y-141604856D01*
X165880238Y-141604856D02*
X165975476Y-141700094D01*
X165975476Y-141700094D02*
X166070714Y-141747713D01*
X166070714Y-141747713D02*
X166261190Y-141795332D01*
X166261190Y-141795332D02*
X166404047Y-141795332D01*
X166404047Y-141795332D02*
X166594523Y-141747713D01*
X166594523Y-141747713D02*
X166689761Y-141700094D01*
X166689761Y-141700094D02*
X166785000Y-141604856D01*
X166785000Y-141604856D02*
X166832619Y-141461999D01*
X166832619Y-141461999D02*
X166832619Y-141366761D01*
X166832619Y-141366761D02*
X166785000Y-141223904D01*
X166785000Y-141223904D02*
X166737380Y-141176285D01*
X166737380Y-141176285D02*
X166404047Y-141176285D01*
X166404047Y-141176285D02*
X166404047Y-141366761D01*
X166832619Y-140747713D02*
X165832619Y-140747713D01*
X165832619Y-140747713D02*
X166832619Y-140176285D01*
X166832619Y-140176285D02*
X165832619Y-140176285D01*
X166832619Y-139700094D02*
X165832619Y-139700094D01*
X165832619Y-139700094D02*
X165832619Y-139461999D01*
X165832619Y-139461999D02*
X165880238Y-139319142D01*
X165880238Y-139319142D02*
X165975476Y-139223904D01*
X165975476Y-139223904D02*
X166070714Y-139176285D01*
X166070714Y-139176285D02*
X166261190Y-139128666D01*
X166261190Y-139128666D02*
X166404047Y-139128666D01*
X166404047Y-139128666D02*
X166594523Y-139176285D01*
X166594523Y-139176285D02*
X166689761Y-139223904D01*
X166689761Y-139223904D02*
X166785000Y-139319142D01*
X166785000Y-139319142D02*
X166832619Y-139461999D01*
X166832619Y-139461999D02*
X166832619Y-139700094D01*
X156672619Y-140938285D02*
X156672619Y-141509713D01*
X156672619Y-141223999D02*
X155672619Y-141223999D01*
X155672619Y-141223999D02*
X155815476Y-141319237D01*
X155815476Y-141319237D02*
X155910714Y-141414475D01*
X155910714Y-141414475D02*
X155958333Y-141509713D01*
X168372619Y-141795332D02*
X169372619Y-141461999D01*
X169372619Y-141461999D02*
X168372619Y-141128666D01*
X169277380Y-140223904D02*
X169325000Y-140271523D01*
X169325000Y-140271523D02*
X169372619Y-140414380D01*
X169372619Y-140414380D02*
X169372619Y-140509618D01*
X169372619Y-140509618D02*
X169325000Y-140652475D01*
X169325000Y-140652475D02*
X169229761Y-140747713D01*
X169229761Y-140747713D02*
X169134523Y-140795332D01*
X169134523Y-140795332D02*
X168944047Y-140842951D01*
X168944047Y-140842951D02*
X168801190Y-140842951D01*
X168801190Y-140842951D02*
X168610714Y-140795332D01*
X168610714Y-140795332D02*
X168515476Y-140747713D01*
X168515476Y-140747713D02*
X168420238Y-140652475D01*
X168420238Y-140652475D02*
X168372619Y-140509618D01*
X168372619Y-140509618D02*
X168372619Y-140414380D01*
X168372619Y-140414380D02*
X168420238Y-140271523D01*
X168420238Y-140271523D02*
X168467857Y-140223904D01*
X169277380Y-139223904D02*
X169325000Y-139271523D01*
X169325000Y-139271523D02*
X169372619Y-139414380D01*
X169372619Y-139414380D02*
X169372619Y-139509618D01*
X169372619Y-139509618D02*
X169325000Y-139652475D01*
X169325000Y-139652475D02*
X169229761Y-139747713D01*
X169229761Y-139747713D02*
X169134523Y-139795332D01*
X169134523Y-139795332D02*
X168944047Y-139842951D01*
X168944047Y-139842951D02*
X168801190Y-139842951D01*
X168801190Y-139842951D02*
X168610714Y-139795332D01*
X168610714Y-139795332D02*
X168515476Y-139747713D01*
X168515476Y-139747713D02*
X168420238Y-139652475D01*
X168420238Y-139652475D02*
X168372619Y-139509618D01*
X168372619Y-139509618D02*
X168372619Y-139414380D01*
X168372619Y-139414380D02*
X168420238Y-139271523D01*
X168420238Y-139271523D02*
X168467857Y-139223904D01*
%TO.C,R1*%
X171742619Y-131992666D02*
X171266428Y-132325999D01*
X171742619Y-132564094D02*
X170742619Y-132564094D01*
X170742619Y-132564094D02*
X170742619Y-132183142D01*
X170742619Y-132183142D02*
X170790238Y-132087904D01*
X170790238Y-132087904D02*
X170837857Y-132040285D01*
X170837857Y-132040285D02*
X170933095Y-131992666D01*
X170933095Y-131992666D02*
X171075952Y-131992666D01*
X171075952Y-131992666D02*
X171171190Y-132040285D01*
X171171190Y-132040285D02*
X171218809Y-132087904D01*
X171218809Y-132087904D02*
X171266428Y-132183142D01*
X171266428Y-132183142D02*
X171266428Y-132564094D01*
X171742619Y-131040285D02*
X171742619Y-131611713D01*
X171742619Y-131325999D02*
X170742619Y-131325999D01*
X170742619Y-131325999D02*
X170885476Y-131421237D01*
X170885476Y-131421237D02*
X170980714Y-131516475D01*
X170980714Y-131516475D02*
X171028333Y-131611713D01*
%TO.C,J1*%
X161956666Y-82182619D02*
X161956666Y-82896904D01*
X161956666Y-82896904D02*
X161909047Y-83039761D01*
X161909047Y-83039761D02*
X161813809Y-83135000D01*
X161813809Y-83135000D02*
X161670952Y-83182619D01*
X161670952Y-83182619D02*
X161575714Y-83182619D01*
X162956666Y-83182619D02*
X162385238Y-83182619D01*
X162670952Y-83182619D02*
X162670952Y-82182619D01*
X162670952Y-82182619D02*
X162575714Y-82325476D01*
X162575714Y-82325476D02*
X162480476Y-82420714D01*
X162480476Y-82420714D02*
X162385238Y-82468333D01*
%TO.C,REF\u002A\u002A*%
D12*
X163279833Y-140708663D02*
X163282048Y-140746850D01*
X163283784Y-140804886D01*
X163284899Y-140878180D01*
X163285257Y-140955055D01*
X163285257Y-141215196D01*
X163239326Y-141261127D01*
X163207675Y-141289429D01*
X163179890Y-141300893D01*
X163141915Y-141300168D01*
X163126840Y-141298321D01*
X163079726Y-141292948D01*
X163040756Y-141289869D01*
X163031257Y-141289585D01*
X162999233Y-141291445D01*
X162953432Y-141296114D01*
X162935674Y-141298321D01*
X162892057Y-141301735D01*
X162862745Y-141294320D01*
X162833680Y-141271427D01*
X162823188Y-141261127D01*
X162777257Y-141215196D01*
X162777257Y-140728602D01*
X162814226Y-140711758D01*
X162846059Y-140699282D01*
X162864683Y-140694914D01*
X162869458Y-140708718D01*
X162873921Y-140747286D01*
X162877775Y-140806356D01*
X162880722Y-140881663D01*
X162882143Y-140945286D01*
X162886114Y-141195657D01*
X162920759Y-141200556D01*
X162952268Y-141197131D01*
X162967708Y-141186041D01*
X162972023Y-141165308D01*
X162975708Y-141121145D01*
X162978469Y-141059146D01*
X162980012Y-140984909D01*
X162980235Y-140946706D01*
X162980457Y-140726783D01*
X163026166Y-140710849D01*
X163058518Y-140700015D01*
X163076115Y-140694962D01*
X163076623Y-140694914D01*
X163078388Y-140708648D01*
X163080329Y-140746730D01*
X163082282Y-140804482D01*
X163084084Y-140877227D01*
X163085343Y-140945286D01*
X163089314Y-141195657D01*
X163176400Y-141195657D01*
X163180396Y-140967240D01*
X163184392Y-140738822D01*
X163226847Y-140716868D01*
X163258192Y-140701793D01*
X163276744Y-140694951D01*
X163277279Y-140694914D01*
X163279833Y-140708663D01*
G36*
X163279833Y-140708663D02*
G01*
X163282048Y-140746850D01*
X163283784Y-140804886D01*
X163284899Y-140878180D01*
X163285257Y-140955055D01*
X163285257Y-141215196D01*
X163239326Y-141261127D01*
X163207675Y-141289429D01*
X163179890Y-141300893D01*
X163141915Y-141300168D01*
X163126840Y-141298321D01*
X163079726Y-141292948D01*
X163040756Y-141289869D01*
X163031257Y-141289585D01*
X162999233Y-141291445D01*
X162953432Y-141296114D01*
X162935674Y-141298321D01*
X162892057Y-141301735D01*
X162862745Y-141294320D01*
X162833680Y-141271427D01*
X162823188Y-141261127D01*
X162777257Y-141215196D01*
X162777257Y-140728602D01*
X162814226Y-140711758D01*
X162846059Y-140699282D01*
X162864683Y-140694914D01*
X162869458Y-140708718D01*
X162873921Y-140747286D01*
X162877775Y-140806356D01*
X162880722Y-140881663D01*
X162882143Y-140945286D01*
X162886114Y-141195657D01*
X162920759Y-141200556D01*
X162952268Y-141197131D01*
X162967708Y-141186041D01*
X162972023Y-141165308D01*
X162975708Y-141121145D01*
X162978469Y-141059146D01*
X162980012Y-140984909D01*
X162980235Y-140946706D01*
X162980457Y-140726783D01*
X163026166Y-140710849D01*
X163058518Y-140700015D01*
X163076115Y-140694962D01*
X163076623Y-140694914D01*
X163078388Y-140708648D01*
X163080329Y-140746730D01*
X163082282Y-140804482D01*
X163084084Y-140877227D01*
X163085343Y-140945286D01*
X163089314Y-141195657D01*
X163176400Y-141195657D01*
X163180396Y-140967240D01*
X163184392Y-140738822D01*
X163226847Y-140716868D01*
X163258192Y-140701793D01*
X163276744Y-140694951D01*
X163277279Y-140694914D01*
X163279833Y-140708663D01*
G37*
X158234322Y-140980192D02*
X158379429Y-140980192D01*
X158380273Y-141046430D01*
X158383596Y-141090386D01*
X158390583Y-141118779D01*
X158402416Y-141138325D01*
X158408457Y-141144857D01*
X158443186Y-141169680D01*
X158476903Y-141168548D01*
X158510995Y-141147016D01*
X158531329Y-141124029D01*
X158543371Y-141090478D01*
X158550134Y-141037569D01*
X158550598Y-141031399D01*
X158551752Y-140935513D01*
X158539688Y-140864299D01*
X158514570Y-140818194D01*
X158476560Y-140797635D01*
X158462992Y-140796514D01*
X158427364Y-140802152D01*
X158402994Y-140821686D01*
X158388093Y-140859042D01*
X158380875Y-140918150D01*
X158379429Y-140980192D01*
X158234322Y-140980192D01*
X158234826Y-140910413D01*
X158237096Y-140858159D01*
X158242068Y-140821949D01*
X158250713Y-140795299D01*
X158264005Y-140771722D01*
X158266943Y-140767338D01*
X158316313Y-140708249D01*
X158370109Y-140673947D01*
X158435602Y-140660331D01*
X158457842Y-140659665D01*
X158541115Y-140671962D01*
X158609145Y-140707733D01*
X158659351Y-140765301D01*
X158677185Y-140802312D01*
X158691063Y-140857882D01*
X158698167Y-140928096D01*
X158698840Y-141004727D01*
X158693427Y-141079552D01*
X158682270Y-141144342D01*
X158665714Y-141190873D01*
X158660626Y-141198887D01*
X158600355Y-141258707D01*
X158528769Y-141294535D01*
X158451092Y-141305020D01*
X158372548Y-141288810D01*
X158350689Y-141279092D01*
X158308122Y-141249143D01*
X158270763Y-141209433D01*
X158267232Y-141204397D01*
X158252881Y-141180124D01*
X158243394Y-141154178D01*
X158237790Y-141120022D01*
X158235086Y-141071119D01*
X158234299Y-141000935D01*
X158234286Y-140985200D01*
X158234322Y-140980192D01*
G36*
X158234322Y-140980192D02*
G01*
X158379429Y-140980192D01*
X158380273Y-141046430D01*
X158383596Y-141090386D01*
X158390583Y-141118779D01*
X158402416Y-141138325D01*
X158408457Y-141144857D01*
X158443186Y-141169680D01*
X158476903Y-141168548D01*
X158510995Y-141147016D01*
X158531329Y-141124029D01*
X158543371Y-141090478D01*
X158550134Y-141037569D01*
X158550598Y-141031399D01*
X158551752Y-140935513D01*
X158539688Y-140864299D01*
X158514570Y-140818194D01*
X158476560Y-140797635D01*
X158462992Y-140796514D01*
X158427364Y-140802152D01*
X158402994Y-140821686D01*
X158388093Y-140859042D01*
X158380875Y-140918150D01*
X158379429Y-140980192D01*
X158234322Y-140980192D01*
X158234826Y-140910413D01*
X158237096Y-140858159D01*
X158242068Y-140821949D01*
X158250713Y-140795299D01*
X158264005Y-140771722D01*
X158266943Y-140767338D01*
X158316313Y-140708249D01*
X158370109Y-140673947D01*
X158435602Y-140660331D01*
X158457842Y-140659665D01*
X158541115Y-140671962D01*
X158609145Y-140707733D01*
X158659351Y-140765301D01*
X158677185Y-140802312D01*
X158691063Y-140857882D01*
X158698167Y-140928096D01*
X158698840Y-141004727D01*
X158693427Y-141079552D01*
X158682270Y-141144342D01*
X158665714Y-141190873D01*
X158660626Y-141198887D01*
X158600355Y-141258707D01*
X158528769Y-141294535D01*
X158451092Y-141305020D01*
X158372548Y-141288810D01*
X158350689Y-141279092D01*
X158308122Y-141249143D01*
X158270763Y-141209433D01*
X158267232Y-141204397D01*
X158252881Y-141180124D01*
X158243394Y-141154178D01*
X158237790Y-141120022D01*
X158235086Y-141071119D01*
X158234299Y-141000935D01*
X158234286Y-140985200D01*
X158234322Y-140980192D01*
G37*
X164360372Y-140956247D02*
X164448007Y-140956247D01*
X164449023Y-140981126D01*
X164451556Y-140985200D01*
X164468274Y-140979665D01*
X164504249Y-140965017D01*
X164552331Y-140944190D01*
X164562386Y-140939714D01*
X164623152Y-140908814D01*
X164656632Y-140881657D01*
X164663990Y-140856220D01*
X164646391Y-140830481D01*
X164631856Y-140819109D01*
X164579410Y-140796364D01*
X164530322Y-140800122D01*
X164489227Y-140827884D01*
X164460758Y-140877152D01*
X164451631Y-140916257D01*
X164448007Y-140956247D01*
X164360372Y-140956247D01*
X164361285Y-140912249D01*
X164368196Y-140845384D01*
X164381884Y-140796695D01*
X164404096Y-140760849D01*
X164436574Y-140732513D01*
X164450733Y-140723355D01*
X164515053Y-140699507D01*
X164585473Y-140698006D01*
X164653595Y-140716966D01*
X164711021Y-140754497D01*
X164738719Y-140788096D01*
X164760662Y-140849064D01*
X164762405Y-140897308D01*
X164758457Y-140961816D01*
X164609686Y-141026934D01*
X164537349Y-141060202D01*
X164490084Y-141086964D01*
X164465507Y-141110144D01*
X164461237Y-141132667D01*
X164474889Y-141157455D01*
X164489943Y-141173886D01*
X164533746Y-141200235D01*
X164581389Y-141202081D01*
X164625145Y-141181546D01*
X164657289Y-141140752D01*
X164663038Y-141126347D01*
X164690576Y-141081356D01*
X164722258Y-141062182D01*
X164765714Y-141045779D01*
X164765714Y-141107966D01*
X164761872Y-141150283D01*
X164746823Y-141185969D01*
X164715280Y-141226943D01*
X164710592Y-141232267D01*
X164675506Y-141268720D01*
X164645347Y-141288283D01*
X164607615Y-141297283D01*
X164576335Y-141300230D01*
X164520385Y-141300965D01*
X164480555Y-141291660D01*
X164455708Y-141277846D01*
X164416656Y-141247467D01*
X164389625Y-141214613D01*
X164372517Y-141173294D01*
X164363238Y-141117521D01*
X164359693Y-141041305D01*
X164359410Y-141002622D01*
X164360372Y-140956247D01*
G36*
X164360372Y-140956247D02*
G01*
X164448007Y-140956247D01*
X164449023Y-140981126D01*
X164451556Y-140985200D01*
X164468274Y-140979665D01*
X164504249Y-140965017D01*
X164552331Y-140944190D01*
X164562386Y-140939714D01*
X164623152Y-140908814D01*
X164656632Y-140881657D01*
X164663990Y-140856220D01*
X164646391Y-140830481D01*
X164631856Y-140819109D01*
X164579410Y-140796364D01*
X164530322Y-140800122D01*
X164489227Y-140827884D01*
X164460758Y-140877152D01*
X164451631Y-140916257D01*
X164448007Y-140956247D01*
X164360372Y-140956247D01*
X164361285Y-140912249D01*
X164368196Y-140845384D01*
X164381884Y-140796695D01*
X164404096Y-140760849D01*
X164436574Y-140732513D01*
X164450733Y-140723355D01*
X164515053Y-140699507D01*
X164585473Y-140698006D01*
X164653595Y-140716966D01*
X164711021Y-140754497D01*
X164738719Y-140788096D01*
X164760662Y-140849064D01*
X164762405Y-140897308D01*
X164758457Y-140961816D01*
X164609686Y-141026934D01*
X164537349Y-141060202D01*
X164490084Y-141086964D01*
X164465507Y-141110144D01*
X164461237Y-141132667D01*
X164474889Y-141157455D01*
X164489943Y-141173886D01*
X164533746Y-141200235D01*
X164581389Y-141202081D01*
X164625145Y-141181546D01*
X164657289Y-141140752D01*
X164663038Y-141126347D01*
X164690576Y-141081356D01*
X164722258Y-141062182D01*
X164765714Y-141045779D01*
X164765714Y-141107966D01*
X164761872Y-141150283D01*
X164746823Y-141185969D01*
X164715280Y-141226943D01*
X164710592Y-141232267D01*
X164675506Y-141268720D01*
X164645347Y-141288283D01*
X164607615Y-141297283D01*
X164576335Y-141300230D01*
X164520385Y-141300965D01*
X164480555Y-141291660D01*
X164455708Y-141277846D01*
X164416656Y-141247467D01*
X164389625Y-141214613D01*
X164372517Y-141173294D01*
X164363238Y-141117521D01*
X164359693Y-141041305D01*
X164359410Y-141002622D01*
X164360372Y-140956247D01*
G37*
X160216093Y-140677780D02*
X160262672Y-140704723D01*
X160295057Y-140731466D01*
X160318742Y-140759484D01*
X160335059Y-140793748D01*
X160345339Y-140839227D01*
X160350914Y-140900892D01*
X160353116Y-140983711D01*
X160353371Y-141043246D01*
X160353371Y-141262391D01*
X160291686Y-141290044D01*
X160230000Y-141317697D01*
X160222743Y-141077670D01*
X160219744Y-140988028D01*
X160216598Y-140922962D01*
X160212701Y-140878026D01*
X160207447Y-140848770D01*
X160200231Y-140830748D01*
X160190450Y-140819511D01*
X160187312Y-140817079D01*
X160139761Y-140798083D01*
X160091697Y-140805600D01*
X160063086Y-140825543D01*
X160051447Y-140839675D01*
X160043391Y-140858220D01*
X160038271Y-140886334D01*
X160035441Y-140929173D01*
X160034256Y-140991895D01*
X160034057Y-141057261D01*
X160034018Y-141139268D01*
X160032614Y-141197316D01*
X160027914Y-141236465D01*
X160017987Y-141261780D01*
X160000903Y-141278323D01*
X159974732Y-141291156D01*
X159939775Y-141304491D01*
X159901596Y-141319007D01*
X159906141Y-141061389D01*
X159907971Y-140968519D01*
X159910112Y-140899889D01*
X159913181Y-140850711D01*
X159917794Y-140816198D01*
X159924568Y-140791562D01*
X159934119Y-140772016D01*
X159945634Y-140754770D01*
X160001190Y-140699680D01*
X160068980Y-140667822D01*
X160142713Y-140660191D01*
X160216093Y-140677780D01*
G36*
X160216093Y-140677780D02*
G01*
X160262672Y-140704723D01*
X160295057Y-140731466D01*
X160318742Y-140759484D01*
X160335059Y-140793748D01*
X160345339Y-140839227D01*
X160350914Y-140900892D01*
X160353116Y-140983711D01*
X160353371Y-141043246D01*
X160353371Y-141262391D01*
X160291686Y-141290044D01*
X160230000Y-141317697D01*
X160222743Y-141077670D01*
X160219744Y-140988028D01*
X160216598Y-140922962D01*
X160212701Y-140878026D01*
X160207447Y-140848770D01*
X160200231Y-140830748D01*
X160190450Y-140819511D01*
X160187312Y-140817079D01*
X160139761Y-140798083D01*
X160091697Y-140805600D01*
X160063086Y-140825543D01*
X160051447Y-140839675D01*
X160043391Y-140858220D01*
X160038271Y-140886334D01*
X160035441Y-140929173D01*
X160034256Y-140991895D01*
X160034057Y-141057261D01*
X160034018Y-141139268D01*
X160032614Y-141197316D01*
X160027914Y-141236465D01*
X160017987Y-141261780D01*
X160000903Y-141278323D01*
X159974732Y-141291156D01*
X159939775Y-141304491D01*
X159901596Y-141319007D01*
X159906141Y-141061389D01*
X159907971Y-140968519D01*
X159910112Y-140899889D01*
X159913181Y-140850711D01*
X159917794Y-140816198D01*
X159924568Y-140791562D01*
X159934119Y-140772016D01*
X159945634Y-140754770D01*
X160001190Y-140699680D01*
X160068980Y-140667822D01*
X160142713Y-140660191D01*
X160216093Y-140677780D01*
G37*
X164152600Y-140708752D02*
X164169948Y-140716334D01*
X164211356Y-140749128D01*
X164246765Y-140796547D01*
X164268664Y-140847151D01*
X164272229Y-140872098D01*
X164260279Y-140906927D01*
X164234067Y-140925357D01*
X164205964Y-140936516D01*
X164193095Y-140938572D01*
X164186829Y-140923649D01*
X164174456Y-140891175D01*
X164169028Y-140876502D01*
X164138590Y-140825744D01*
X164094520Y-140800427D01*
X164038010Y-140801206D01*
X164033825Y-140802203D01*
X164003655Y-140816507D01*
X163981476Y-140844393D01*
X163966327Y-140889287D01*
X163957250Y-140954615D01*
X163953286Y-141043804D01*
X163952914Y-141091261D01*
X163952730Y-141166071D01*
X163951522Y-141217069D01*
X163948309Y-141249471D01*
X163942109Y-141268495D01*
X163931940Y-141279356D01*
X163916819Y-141287272D01*
X163915946Y-141287670D01*
X163886828Y-141299981D01*
X163872403Y-141304514D01*
X163870186Y-141290809D01*
X163868289Y-141252925D01*
X163866847Y-141195715D01*
X163865998Y-141124027D01*
X163865829Y-141071565D01*
X163866692Y-140970047D01*
X163870070Y-140893032D01*
X163877142Y-140836023D01*
X163889088Y-140794526D01*
X163907090Y-140764043D01*
X163932327Y-140740080D01*
X163957247Y-140723355D01*
X164017171Y-140701097D01*
X164086911Y-140696076D01*
X164152600Y-140708752D01*
G36*
X164152600Y-140708752D02*
G01*
X164169948Y-140716334D01*
X164211356Y-140749128D01*
X164246765Y-140796547D01*
X164268664Y-140847151D01*
X164272229Y-140872098D01*
X164260279Y-140906927D01*
X164234067Y-140925357D01*
X164205964Y-140936516D01*
X164193095Y-140938572D01*
X164186829Y-140923649D01*
X164174456Y-140891175D01*
X164169028Y-140876502D01*
X164138590Y-140825744D01*
X164094520Y-140800427D01*
X164038010Y-140801206D01*
X164033825Y-140802203D01*
X164003655Y-140816507D01*
X163981476Y-140844393D01*
X163966327Y-140889287D01*
X163957250Y-140954615D01*
X163953286Y-141043804D01*
X163952914Y-141091261D01*
X163952730Y-141166071D01*
X163951522Y-141217069D01*
X163948309Y-141249471D01*
X163942109Y-141268495D01*
X163931940Y-141279356D01*
X163916819Y-141287272D01*
X163915946Y-141287670D01*
X163886828Y-141299981D01*
X163872403Y-141304514D01*
X163870186Y-141290809D01*
X163868289Y-141252925D01*
X163866847Y-141195715D01*
X163865998Y-141124027D01*
X163865829Y-141071565D01*
X163866692Y-140970047D01*
X163870070Y-140893032D01*
X163877142Y-140836023D01*
X163889088Y-140794526D01*
X163907090Y-140764043D01*
X163932327Y-140740080D01*
X163957247Y-140723355D01*
X164017171Y-140701097D01*
X164086911Y-140696076D01*
X164152600Y-140708752D01*
G37*
X162269458Y-140995647D02*
X162370857Y-140995647D01*
X162371476Y-141060550D01*
X162374314Y-141103514D01*
X162380840Y-141131622D01*
X162392523Y-141151953D01*
X162406483Y-141167288D01*
X162453365Y-141196890D01*
X162503701Y-141199419D01*
X162551276Y-141174705D01*
X162554979Y-141171356D01*
X162570783Y-141153935D01*
X162580693Y-141133209D01*
X162586058Y-141102362D01*
X162588228Y-141054577D01*
X162588571Y-141001748D01*
X162587827Y-140935381D01*
X162584748Y-140891106D01*
X162578061Y-140862009D01*
X162566496Y-140841173D01*
X162557013Y-140830107D01*
X162512960Y-140802198D01*
X162462224Y-140798843D01*
X162413796Y-140820159D01*
X162404450Y-140828073D01*
X162388540Y-140845647D01*
X162378610Y-140866587D01*
X162373278Y-140897782D01*
X162371163Y-140946122D01*
X162370857Y-140995647D01*
X162269458Y-140995647D01*
X162272810Y-140908568D01*
X162284726Y-140840086D01*
X162307135Y-140788600D01*
X162342124Y-140748443D01*
X162369375Y-140727861D01*
X162418907Y-140705625D01*
X162476316Y-140695304D01*
X162529682Y-140698067D01*
X162559543Y-140709212D01*
X162571261Y-140712383D01*
X162579037Y-140700557D01*
X162584465Y-140668866D01*
X162588571Y-140620593D01*
X162593067Y-140566829D01*
X162599313Y-140534482D01*
X162610676Y-140515985D01*
X162630528Y-140503770D01*
X162643000Y-140498362D01*
X162690171Y-140478601D01*
X162690117Y-140815358D01*
X162689933Y-140923837D01*
X162689219Y-141007287D01*
X162687675Y-141069704D01*
X162685001Y-141115085D01*
X162680894Y-141147429D01*
X162675055Y-141170733D01*
X162667182Y-141188995D01*
X162661221Y-141199418D01*
X162611855Y-141255945D01*
X162549264Y-141291377D01*
X162480013Y-141304090D01*
X162410668Y-141292463D01*
X162369375Y-141271568D01*
X162326025Y-141235422D01*
X162296481Y-141191276D01*
X162278655Y-141133462D01*
X162270463Y-141056313D01*
X162269302Y-140999714D01*
X162269458Y-140995647D01*
G36*
X162269458Y-140995647D02*
G01*
X162370857Y-140995647D01*
X162371476Y-141060550D01*
X162374314Y-141103514D01*
X162380840Y-141131622D01*
X162392523Y-141151953D01*
X162406483Y-141167288D01*
X162453365Y-141196890D01*
X162503701Y-141199419D01*
X162551276Y-141174705D01*
X162554979Y-141171356D01*
X162570783Y-141153935D01*
X162580693Y-141133209D01*
X162586058Y-141102362D01*
X162588228Y-141054577D01*
X162588571Y-141001748D01*
X162587827Y-140935381D01*
X162584748Y-140891106D01*
X162578061Y-140862009D01*
X162566496Y-140841173D01*
X162557013Y-140830107D01*
X162512960Y-140802198D01*
X162462224Y-140798843D01*
X162413796Y-140820159D01*
X162404450Y-140828073D01*
X162388540Y-140845647D01*
X162378610Y-140866587D01*
X162373278Y-140897782D01*
X162371163Y-140946122D01*
X162370857Y-140995647D01*
X162269458Y-140995647D01*
X162272810Y-140908568D01*
X162284726Y-140840086D01*
X162307135Y-140788600D01*
X162342124Y-140748443D01*
X162369375Y-140727861D01*
X162418907Y-140705625D01*
X162476316Y-140695304D01*
X162529682Y-140698067D01*
X162559543Y-140709212D01*
X162571261Y-140712383D01*
X162579037Y-140700557D01*
X162584465Y-140668866D01*
X162588571Y-140620593D01*
X162593067Y-140566829D01*
X162599313Y-140534482D01*
X162610676Y-140515985D01*
X162630528Y-140503770D01*
X162643000Y-140498362D01*
X162690171Y-140478601D01*
X162690117Y-140815358D01*
X162689933Y-140923837D01*
X162689219Y-141007287D01*
X162687675Y-141069704D01*
X162685001Y-141115085D01*
X162680894Y-141147429D01*
X162675055Y-141170733D01*
X162667182Y-141188995D01*
X162661221Y-141199418D01*
X162611855Y-141255945D01*
X162549264Y-141291377D01*
X162480013Y-141304090D01*
X162410668Y-141292463D01*
X162369375Y-141271568D01*
X162326025Y-141235422D01*
X162296481Y-141191276D01*
X162278655Y-141133462D01*
X162270463Y-141056313D01*
X162269302Y-140999714D01*
X162269458Y-140995647D01*
G37*
X160875886Y-140601289D02*
X160880139Y-140660613D01*
X160885025Y-140695572D01*
X160891795Y-140710820D01*
X160901702Y-140711015D01*
X160904914Y-140709195D01*
X160947644Y-140696015D01*
X161003227Y-140696785D01*
X161059737Y-140710333D01*
X161095082Y-140727861D01*
X161131321Y-140755861D01*
X161157813Y-140787549D01*
X161175999Y-140827813D01*
X161187322Y-140881543D01*
X161193222Y-140953626D01*
X161195143Y-141048951D01*
X161195177Y-141067237D01*
X161195200Y-141272646D01*
X161149491Y-141288580D01*
X161117027Y-141299420D01*
X161099215Y-141304468D01*
X161098691Y-141304514D01*
X161096937Y-141290828D01*
X161095444Y-141253076D01*
X161094326Y-141196224D01*
X161093697Y-141125234D01*
X161093600Y-141082073D01*
X161093398Y-140996973D01*
X161092358Y-140935981D01*
X161089831Y-140894177D01*
X161085164Y-140866642D01*
X161077707Y-140848456D01*
X161066811Y-140834698D01*
X161060007Y-140828073D01*
X161013272Y-140801375D01*
X160962272Y-140799375D01*
X160916001Y-140821955D01*
X160907444Y-140830107D01*
X160894893Y-140845436D01*
X160886188Y-140863618D01*
X160880631Y-140889909D01*
X160877526Y-140929562D01*
X160876176Y-140987832D01*
X160875886Y-141068173D01*
X160875886Y-141272646D01*
X160830177Y-141288580D01*
X160797713Y-141299420D01*
X160779901Y-141304468D01*
X160779377Y-141304514D01*
X160778037Y-141290623D01*
X160776828Y-141251439D01*
X160775801Y-141190700D01*
X160775002Y-141112141D01*
X160774481Y-141019498D01*
X160774286Y-140916509D01*
X160774286Y-140519342D01*
X160821457Y-140499444D01*
X160868629Y-140479547D01*
X160875886Y-140601289D01*
G36*
X160875886Y-140601289D02*
G01*
X160880139Y-140660613D01*
X160885025Y-140695572D01*
X160891795Y-140710820D01*
X160901702Y-140711015D01*
X160904914Y-140709195D01*
X160947644Y-140696015D01*
X161003227Y-140696785D01*
X161059737Y-140710333D01*
X161095082Y-140727861D01*
X161131321Y-140755861D01*
X161157813Y-140787549D01*
X161175999Y-140827813D01*
X161187322Y-140881543D01*
X161193222Y-140953626D01*
X161195143Y-141048951D01*
X161195177Y-141067237D01*
X161195200Y-141272646D01*
X161149491Y-141288580D01*
X161117027Y-141299420D01*
X161099215Y-141304468D01*
X161098691Y-141304514D01*
X161096937Y-141290828D01*
X161095444Y-141253076D01*
X161094326Y-141196224D01*
X161093697Y-141125234D01*
X161093600Y-141082073D01*
X161093398Y-140996973D01*
X161092358Y-140935981D01*
X161089831Y-140894177D01*
X161085164Y-140866642D01*
X161077707Y-140848456D01*
X161066811Y-140834698D01*
X161060007Y-140828073D01*
X161013272Y-140801375D01*
X160962272Y-140799375D01*
X160916001Y-140821955D01*
X160907444Y-140830107D01*
X160894893Y-140845436D01*
X160886188Y-140863618D01*
X160880631Y-140889909D01*
X160877526Y-140929562D01*
X160876176Y-140987832D01*
X160875886Y-141068173D01*
X160875886Y-141272646D01*
X160830177Y-141288580D01*
X160797713Y-141299420D01*
X160779901Y-141304468D01*
X160779377Y-141304514D01*
X160778037Y-141290623D01*
X160776828Y-141251439D01*
X160775801Y-141190700D01*
X160775002Y-141112141D01*
X160774481Y-141019498D01*
X160774286Y-140916509D01*
X160774286Y-140519342D01*
X160821457Y-140499444D01*
X160868629Y-140479547D01*
X160875886Y-140601289D01*
G37*
X161539744Y-140700968D02*
X161596616Y-140722087D01*
X161597267Y-140722493D01*
X161632440Y-140748380D01*
X161658407Y-140778633D01*
X161676670Y-140818058D01*
X161688732Y-140871462D01*
X161696096Y-140943651D01*
X161700264Y-141039432D01*
X161700629Y-141053078D01*
X161705876Y-141258842D01*
X161661716Y-141281678D01*
X161629763Y-141297110D01*
X161610470Y-141304423D01*
X161609578Y-141304514D01*
X161606239Y-141291022D01*
X161603587Y-141254626D01*
X161601956Y-141201452D01*
X161601600Y-141158393D01*
X161601592Y-141088641D01*
X161598403Y-141044837D01*
X161587288Y-141023944D01*
X161563501Y-141022925D01*
X161522296Y-141038741D01*
X161460086Y-141067815D01*
X161414341Y-141091963D01*
X161390813Y-141112913D01*
X161383896Y-141135747D01*
X161383886Y-141136877D01*
X161395299Y-141176212D01*
X161429092Y-141197462D01*
X161480809Y-141200539D01*
X161518061Y-141200006D01*
X161537703Y-141210735D01*
X161549952Y-141236505D01*
X161557002Y-141269337D01*
X161546842Y-141287966D01*
X161543017Y-141290632D01*
X161507001Y-141301340D01*
X161456566Y-141302856D01*
X161404626Y-141295759D01*
X161367822Y-141282788D01*
X161316938Y-141239585D01*
X161288014Y-141179446D01*
X161282286Y-141132462D01*
X161286657Y-141090082D01*
X161302475Y-141055488D01*
X161333797Y-141024763D01*
X161384678Y-140993990D01*
X161459176Y-140959252D01*
X161463714Y-140957288D01*
X161530821Y-140926287D01*
X161572232Y-140900862D01*
X161589981Y-140878014D01*
X161586107Y-140854745D01*
X161562643Y-140828056D01*
X161555627Y-140821914D01*
X161508630Y-140798100D01*
X161459933Y-140799103D01*
X161417522Y-140822451D01*
X161389384Y-140865675D01*
X161386769Y-140874160D01*
X161361308Y-140915308D01*
X161329001Y-140935128D01*
X161282286Y-140954770D01*
X161282286Y-140903950D01*
X161296496Y-140830082D01*
X161338675Y-140762327D01*
X161360624Y-140739661D01*
X161410517Y-140710569D01*
X161473967Y-140697400D01*
X161539744Y-140700968D01*
G36*
X161539744Y-140700968D02*
G01*
X161596616Y-140722087D01*
X161597267Y-140722493D01*
X161632440Y-140748380D01*
X161658407Y-140778633D01*
X161676670Y-140818058D01*
X161688732Y-140871462D01*
X161696096Y-140943651D01*
X161700264Y-141039432D01*
X161700629Y-141053078D01*
X161705876Y-141258842D01*
X161661716Y-141281678D01*
X161629763Y-141297110D01*
X161610470Y-141304423D01*
X161609578Y-141304514D01*
X161606239Y-141291022D01*
X161603587Y-141254626D01*
X161601956Y-141201452D01*
X161601600Y-141158393D01*
X161601592Y-141088641D01*
X161598403Y-141044837D01*
X161587288Y-141023944D01*
X161563501Y-141022925D01*
X161522296Y-141038741D01*
X161460086Y-141067815D01*
X161414341Y-141091963D01*
X161390813Y-141112913D01*
X161383896Y-141135747D01*
X161383886Y-141136877D01*
X161395299Y-141176212D01*
X161429092Y-141197462D01*
X161480809Y-141200539D01*
X161518061Y-141200006D01*
X161537703Y-141210735D01*
X161549952Y-141236505D01*
X161557002Y-141269337D01*
X161546842Y-141287966D01*
X161543017Y-141290632D01*
X161507001Y-141301340D01*
X161456566Y-141302856D01*
X161404626Y-141295759D01*
X161367822Y-141282788D01*
X161316938Y-141239585D01*
X161288014Y-141179446D01*
X161282286Y-141132462D01*
X161286657Y-141090082D01*
X161302475Y-141055488D01*
X161333797Y-141024763D01*
X161384678Y-140993990D01*
X161459176Y-140959252D01*
X161463714Y-140957288D01*
X161530821Y-140926287D01*
X161572232Y-140900862D01*
X161589981Y-140878014D01*
X161586107Y-140854745D01*
X161562643Y-140828056D01*
X161555627Y-140821914D01*
X161508630Y-140798100D01*
X161459933Y-140799103D01*
X161417522Y-140822451D01*
X161389384Y-140865675D01*
X161386769Y-140874160D01*
X161361308Y-140915308D01*
X161329001Y-140935128D01*
X161282286Y-140954770D01*
X161282286Y-140903950D01*
X161296496Y-140830082D01*
X161338675Y-140762327D01*
X161360624Y-140739661D01*
X161410517Y-140710569D01*
X161473967Y-140697400D01*
X161539744Y-140700968D01*
G37*
X161603910Y-135992348D02*
X161682454Y-135992778D01*
X161739298Y-135993942D01*
X161778105Y-135996207D01*
X161802538Y-135999940D01*
X161816262Y-136005506D01*
X161822940Y-136013273D01*
X161826236Y-136023605D01*
X161826556Y-136024943D01*
X161831562Y-136049079D01*
X161840829Y-136096701D01*
X161853392Y-136162741D01*
X161868287Y-136242128D01*
X161884551Y-136329796D01*
X161885119Y-136332875D01*
X161901410Y-136418789D01*
X161916652Y-136494696D01*
X161929861Y-136556045D01*
X161940054Y-136598282D01*
X161946248Y-136616855D01*
X161946543Y-136617184D01*
X161964788Y-136626253D01*
X162002405Y-136641367D01*
X162051271Y-136659262D01*
X162051543Y-136659358D01*
X162113093Y-136682493D01*
X162185657Y-136711965D01*
X162254057Y-136741597D01*
X162257294Y-136743062D01*
X162368702Y-136793626D01*
X162615399Y-136625160D01*
X162691077Y-136573803D01*
X162759631Y-136527889D01*
X162817088Y-136490030D01*
X162859476Y-136462837D01*
X162882825Y-136448921D01*
X162885042Y-136447889D01*
X162902010Y-136452484D01*
X162933701Y-136474655D01*
X162981352Y-136515447D01*
X163046198Y-136575905D01*
X163112397Y-136640227D01*
X163176214Y-136703612D01*
X163233329Y-136761451D01*
X163280305Y-136810175D01*
X163313703Y-136846210D01*
X163330085Y-136865984D01*
X163330694Y-136867002D01*
X163332505Y-136880572D01*
X163325683Y-136902733D01*
X163308540Y-136936478D01*
X163279393Y-136984800D01*
X163236555Y-137050692D01*
X163179448Y-137135517D01*
X163128766Y-137210177D01*
X163083461Y-137277140D01*
X163046150Y-137332516D01*
X163019452Y-137372420D01*
X163005985Y-137392962D01*
X163005137Y-137394356D01*
X163006781Y-137414038D01*
X163019245Y-137452293D01*
X163040048Y-137501889D01*
X163047462Y-137517728D01*
X163079814Y-137588290D01*
X163114328Y-137668353D01*
X163142365Y-137737629D01*
X163162568Y-137789045D01*
X163178615Y-137828119D01*
X163187888Y-137848541D01*
X163189041Y-137850114D01*
X163206096Y-137852721D01*
X163246298Y-137859863D01*
X163304302Y-137870523D01*
X163374763Y-137883685D01*
X163452335Y-137898333D01*
X163531672Y-137913449D01*
X163607431Y-137928018D01*
X163674264Y-137941022D01*
X163726828Y-137951445D01*
X163759776Y-137958270D01*
X163767857Y-137960199D01*
X163776205Y-137964962D01*
X163782506Y-137975718D01*
X163787045Y-137996098D01*
X163790104Y-138029734D01*
X163791967Y-138080255D01*
X163792918Y-138151292D01*
X163793240Y-138246476D01*
X163793257Y-138285492D01*
X163793257Y-138602799D01*
X163717057Y-138617839D01*
X163674663Y-138625995D01*
X163611400Y-138637899D01*
X163534962Y-138652116D01*
X163453043Y-138667210D01*
X163430400Y-138671355D01*
X163354806Y-138686053D01*
X163288953Y-138700505D01*
X163238366Y-138713375D01*
X163208574Y-138723322D01*
X163203612Y-138726287D01*
X163191426Y-138747283D01*
X163173953Y-138787967D01*
X163154577Y-138840322D01*
X163150734Y-138851600D01*
X163125339Y-138921523D01*
X163093817Y-139000418D01*
X163062969Y-139071266D01*
X163062817Y-139071595D01*
X163011447Y-139182733D01*
X163180399Y-139431253D01*
X163349352Y-139679772D01*
X163132429Y-139897058D01*
X163066819Y-139961726D01*
X163006979Y-140018733D01*
X162956267Y-140065033D01*
X162918046Y-140097584D01*
X162895675Y-140113343D01*
X162892466Y-140114343D01*
X162873626Y-140106469D01*
X162835180Y-140084578D01*
X162781330Y-140051267D01*
X162716276Y-140009131D01*
X162645940Y-139961943D01*
X162574555Y-139913810D01*
X162510908Y-139871928D01*
X162459041Y-139838871D01*
X162422995Y-139817218D01*
X162406867Y-139809543D01*
X162387189Y-139816037D01*
X162349875Y-139833150D01*
X162302621Y-139857326D01*
X162297612Y-139860013D01*
X162233977Y-139891927D01*
X162190341Y-139907579D01*
X162163202Y-139907745D01*
X162149057Y-139893204D01*
X162148975Y-139893000D01*
X162141905Y-139875779D01*
X162125042Y-139834899D01*
X162099695Y-139773525D01*
X162067171Y-139694819D01*
X162028778Y-139601947D01*
X161985822Y-139498072D01*
X161944222Y-139397502D01*
X161898504Y-139286516D01*
X161856526Y-139183703D01*
X161819548Y-139092215D01*
X161788827Y-139015201D01*
X161765622Y-138955815D01*
X161751190Y-138917209D01*
X161746743Y-138902800D01*
X161757896Y-138886272D01*
X161787069Y-138859930D01*
X161825971Y-138830887D01*
X161936757Y-138739039D01*
X162023351Y-138633759D01*
X162084716Y-138517266D01*
X162119815Y-138391776D01*
X162127608Y-138259507D01*
X162121943Y-138198457D01*
X162091078Y-138071795D01*
X162037920Y-137959941D01*
X161965767Y-137864001D01*
X161877917Y-137785076D01*
X161777665Y-137724270D01*
X161668310Y-137682687D01*
X161553147Y-137661428D01*
X161435475Y-137661599D01*
X161318590Y-137684301D01*
X161205789Y-137730638D01*
X161100369Y-137801713D01*
X161056368Y-137841911D01*
X160971979Y-137945129D01*
X160913222Y-138057925D01*
X160879704Y-138177010D01*
X160871035Y-138299095D01*
X160886823Y-138420893D01*
X160926678Y-138539116D01*
X160990207Y-138650475D01*
X161077021Y-138751684D01*
X161174029Y-138830887D01*
X161214437Y-138861162D01*
X161242982Y-138887219D01*
X161253257Y-138902825D01*
X161247877Y-138919843D01*
X161232575Y-138960500D01*
X161208612Y-139021642D01*
X161177244Y-139100119D01*
X161139732Y-139192780D01*
X161097333Y-139296472D01*
X161055663Y-139397526D01*
X161009690Y-139508607D01*
X160967107Y-139611541D01*
X160929221Y-139703165D01*
X160897340Y-139780316D01*
X160872771Y-139839831D01*
X160856820Y-139878544D01*
X160850910Y-139893000D01*
X160836948Y-139907685D01*
X160809940Y-139907642D01*
X160766413Y-139892099D01*
X160702890Y-139860284D01*
X160702388Y-139860013D01*
X160654560Y-139835323D01*
X160615897Y-139817338D01*
X160594095Y-139809614D01*
X160593133Y-139809543D01*
X160576721Y-139817378D01*
X160540487Y-139839165D01*
X160488474Y-139872328D01*
X160424725Y-139914291D01*
X160354060Y-139961943D01*
X160282116Y-140010191D01*
X160217274Y-140052151D01*
X160163735Y-140085227D01*
X160125697Y-140106821D01*
X160107533Y-140114343D01*
X160090808Y-140104457D01*
X160057180Y-140076826D01*
X160010010Y-140034495D01*
X159952658Y-139980505D01*
X159888484Y-139917899D01*
X159867497Y-139896983D01*
X159650499Y-139679623D01*
X159815668Y-139437220D01*
X159865864Y-139362781D01*
X159909919Y-139295972D01*
X159945362Y-139240665D01*
X159969719Y-139200729D01*
X159980522Y-139180036D01*
X159980838Y-139178563D01*
X159975143Y-139159058D01*
X159959826Y-139119822D01*
X159937537Y-139067430D01*
X159921893Y-139032355D01*
X159892641Y-138965201D01*
X159865094Y-138897358D01*
X159843737Y-138840034D01*
X159837935Y-138822572D01*
X159821452Y-138775938D01*
X159805340Y-138739905D01*
X159796490Y-138726287D01*
X159776960Y-138717952D01*
X159734334Y-138706137D01*
X159674145Y-138692181D01*
X159601922Y-138677422D01*
X159569600Y-138671355D01*
X159487522Y-138656273D01*
X159408795Y-138641669D01*
X159341109Y-138628980D01*
X159292160Y-138619642D01*
X159282943Y-138617839D01*
X159206743Y-138602799D01*
X159206743Y-138285492D01*
X159206914Y-138181154D01*
X159207616Y-138102213D01*
X159209134Y-138045038D01*
X159211749Y-138005999D01*
X159215746Y-137981465D01*
X159221409Y-137967805D01*
X159229020Y-137961389D01*
X159232143Y-137960199D01*
X159250978Y-137955980D01*
X159292588Y-137947562D01*
X159351630Y-137935961D01*
X159422757Y-137922195D01*
X159500625Y-137907280D01*
X159579887Y-137892232D01*
X159655198Y-137878069D01*
X159721213Y-137865806D01*
X159772587Y-137856461D01*
X159803975Y-137851050D01*
X159810959Y-137850114D01*
X159817285Y-137837596D01*
X159831290Y-137804246D01*
X159850355Y-137756377D01*
X159857634Y-137737629D01*
X159886996Y-137665195D01*
X159921571Y-137585170D01*
X159952537Y-137517728D01*
X159975323Y-137466159D01*
X159990482Y-137423785D01*
X159995542Y-137397834D01*
X159994736Y-137394356D01*
X159984041Y-137377936D01*
X159959620Y-137341417D01*
X159924095Y-137288687D01*
X159880087Y-137223635D01*
X159830217Y-137150151D01*
X159820356Y-137135645D01*
X159762492Y-137049704D01*
X159719956Y-136984261D01*
X159691054Y-136936304D01*
X159674090Y-136902820D01*
X159667367Y-136880795D01*
X159669190Y-136867217D01*
X159669236Y-136867131D01*
X159683586Y-136849297D01*
X159715323Y-136814817D01*
X159761010Y-136767268D01*
X159817204Y-136710222D01*
X159880468Y-136647255D01*
X159887602Y-136640227D01*
X159967330Y-136563020D01*
X160028857Y-136506330D01*
X160073421Y-136469110D01*
X160102257Y-136450315D01*
X160114958Y-136447889D01*
X160133494Y-136458471D01*
X160171961Y-136482916D01*
X160226386Y-136518612D01*
X160292798Y-136562947D01*
X160367225Y-136613311D01*
X160384601Y-136625160D01*
X160631297Y-136793626D01*
X160742706Y-136743062D01*
X160810457Y-136713595D01*
X160883183Y-136683959D01*
X160945703Y-136660330D01*
X160948457Y-136659358D01*
X160997360Y-136641457D01*
X161035057Y-136626320D01*
X161053425Y-136617210D01*
X161053456Y-136617184D01*
X161059285Y-136600717D01*
X161069192Y-136560219D01*
X161082195Y-136500242D01*
X161097309Y-136425340D01*
X161113552Y-136340064D01*
X161114881Y-136332875D01*
X161131175Y-136245014D01*
X161146133Y-136165260D01*
X161158791Y-136098681D01*
X161168186Y-136050347D01*
X161173354Y-136025325D01*
X161173444Y-136024943D01*
X161176589Y-136014299D01*
X161182704Y-136006262D01*
X161195453Y-136000467D01*
X161218500Y-135996547D01*
X161255509Y-135994135D01*
X161310144Y-135992865D01*
X161386067Y-135992371D01*
X161486944Y-135992286D01*
X161500000Y-135992286D01*
X161603910Y-135992348D01*
G36*
X161603910Y-135992348D02*
G01*
X161682454Y-135992778D01*
X161739298Y-135993942D01*
X161778105Y-135996207D01*
X161802538Y-135999940D01*
X161816262Y-136005506D01*
X161822940Y-136013273D01*
X161826236Y-136023605D01*
X161826556Y-136024943D01*
X161831562Y-136049079D01*
X161840829Y-136096701D01*
X161853392Y-136162741D01*
X161868287Y-136242128D01*
X161884551Y-136329796D01*
X161885119Y-136332875D01*
X161901410Y-136418789D01*
X161916652Y-136494696D01*
X161929861Y-136556045D01*
X161940054Y-136598282D01*
X161946248Y-136616855D01*
X161946543Y-136617184D01*
X161964788Y-136626253D01*
X162002405Y-136641367D01*
X162051271Y-136659262D01*
X162051543Y-136659358D01*
X162113093Y-136682493D01*
X162185657Y-136711965D01*
X162254057Y-136741597D01*
X162257294Y-136743062D01*
X162368702Y-136793626D01*
X162615399Y-136625160D01*
X162691077Y-136573803D01*
X162759631Y-136527889D01*
X162817088Y-136490030D01*
X162859476Y-136462837D01*
X162882825Y-136448921D01*
X162885042Y-136447889D01*
X162902010Y-136452484D01*
X162933701Y-136474655D01*
X162981352Y-136515447D01*
X163046198Y-136575905D01*
X163112397Y-136640227D01*
X163176214Y-136703612D01*
X163233329Y-136761451D01*
X163280305Y-136810175D01*
X163313703Y-136846210D01*
X163330085Y-136865984D01*
X163330694Y-136867002D01*
X163332505Y-136880572D01*
X163325683Y-136902733D01*
X163308540Y-136936478D01*
X163279393Y-136984800D01*
X163236555Y-137050692D01*
X163179448Y-137135517D01*
X163128766Y-137210177D01*
X163083461Y-137277140D01*
X163046150Y-137332516D01*
X163019452Y-137372420D01*
X163005985Y-137392962D01*
X163005137Y-137394356D01*
X163006781Y-137414038D01*
X163019245Y-137452293D01*
X163040048Y-137501889D01*
X163047462Y-137517728D01*
X163079814Y-137588290D01*
X163114328Y-137668353D01*
X163142365Y-137737629D01*
X163162568Y-137789045D01*
X163178615Y-137828119D01*
X163187888Y-137848541D01*
X163189041Y-137850114D01*
X163206096Y-137852721D01*
X163246298Y-137859863D01*
X163304302Y-137870523D01*
X163374763Y-137883685D01*
X163452335Y-137898333D01*
X163531672Y-137913449D01*
X163607431Y-137928018D01*
X163674264Y-137941022D01*
X163726828Y-137951445D01*
X163759776Y-137958270D01*
X163767857Y-137960199D01*
X163776205Y-137964962D01*
X163782506Y-137975718D01*
X163787045Y-137996098D01*
X163790104Y-138029734D01*
X163791967Y-138080255D01*
X163792918Y-138151292D01*
X163793240Y-138246476D01*
X163793257Y-138285492D01*
X163793257Y-138602799D01*
X163717057Y-138617839D01*
X163674663Y-138625995D01*
X163611400Y-138637899D01*
X163534962Y-138652116D01*
X163453043Y-138667210D01*
X163430400Y-138671355D01*
X163354806Y-138686053D01*
X163288953Y-138700505D01*
X163238366Y-138713375D01*
X163208574Y-138723322D01*
X163203612Y-138726287D01*
X163191426Y-138747283D01*
X163173953Y-138787967D01*
X163154577Y-138840322D01*
X163150734Y-138851600D01*
X163125339Y-138921523D01*
X163093817Y-139000418D01*
X163062969Y-139071266D01*
X163062817Y-139071595D01*
X163011447Y-139182733D01*
X163180399Y-139431253D01*
X163349352Y-139679772D01*
X163132429Y-139897058D01*
X163066819Y-139961726D01*
X163006979Y-140018733D01*
X162956267Y-140065033D01*
X162918046Y-140097584D01*
X162895675Y-140113343D01*
X162892466Y-140114343D01*
X162873626Y-140106469D01*
X162835180Y-140084578D01*
X162781330Y-140051267D01*
X162716276Y-140009131D01*
X162645940Y-139961943D01*
X162574555Y-139913810D01*
X162510908Y-139871928D01*
X162459041Y-139838871D01*
X162422995Y-139817218D01*
X162406867Y-139809543D01*
X162387189Y-139816037D01*
X162349875Y-139833150D01*
X162302621Y-139857326D01*
X162297612Y-139860013D01*
X162233977Y-139891927D01*
X162190341Y-139907579D01*
X162163202Y-139907745D01*
X162149057Y-139893204D01*
X162148975Y-139893000D01*
X162141905Y-139875779D01*
X162125042Y-139834899D01*
X162099695Y-139773525D01*
X162067171Y-139694819D01*
X162028778Y-139601947D01*
X161985822Y-139498072D01*
X161944222Y-139397502D01*
X161898504Y-139286516D01*
X161856526Y-139183703D01*
X161819548Y-139092215D01*
X161788827Y-139015201D01*
X161765622Y-138955815D01*
X161751190Y-138917209D01*
X161746743Y-138902800D01*
X161757896Y-138886272D01*
X161787069Y-138859930D01*
X161825971Y-138830887D01*
X161936757Y-138739039D01*
X162023351Y-138633759D01*
X162084716Y-138517266D01*
X162119815Y-138391776D01*
X162127608Y-138259507D01*
X162121943Y-138198457D01*
X162091078Y-138071795D01*
X162037920Y-137959941D01*
X161965767Y-137864001D01*
X161877917Y-137785076D01*
X161777665Y-137724270D01*
X161668310Y-137682687D01*
X161553147Y-137661428D01*
X161435475Y-137661599D01*
X161318590Y-137684301D01*
X161205789Y-137730638D01*
X161100369Y-137801713D01*
X161056368Y-137841911D01*
X160971979Y-137945129D01*
X160913222Y-138057925D01*
X160879704Y-138177010D01*
X160871035Y-138299095D01*
X160886823Y-138420893D01*
X160926678Y-138539116D01*
X160990207Y-138650475D01*
X161077021Y-138751684D01*
X161174029Y-138830887D01*
X161214437Y-138861162D01*
X161242982Y-138887219D01*
X161253257Y-138902825D01*
X161247877Y-138919843D01*
X161232575Y-138960500D01*
X161208612Y-139021642D01*
X161177244Y-139100119D01*
X161139732Y-139192780D01*
X161097333Y-139296472D01*
X161055663Y-139397526D01*
X161009690Y-139508607D01*
X160967107Y-139611541D01*
X160929221Y-139703165D01*
X160897340Y-139780316D01*
X160872771Y-139839831D01*
X160856820Y-139878544D01*
X160850910Y-139893000D01*
X160836948Y-139907685D01*
X160809940Y-139907642D01*
X160766413Y-139892099D01*
X160702890Y-139860284D01*
X160702388Y-139860013D01*
X160654560Y-139835323D01*
X160615897Y-139817338D01*
X160594095Y-139809614D01*
X160593133Y-139809543D01*
X160576721Y-139817378D01*
X160540487Y-139839165D01*
X160488474Y-139872328D01*
X160424725Y-139914291D01*
X160354060Y-139961943D01*
X160282116Y-140010191D01*
X160217274Y-140052151D01*
X160163735Y-140085227D01*
X160125697Y-140106821D01*
X160107533Y-140114343D01*
X160090808Y-140104457D01*
X160057180Y-140076826D01*
X160010010Y-140034495D01*
X159952658Y-139980505D01*
X159888484Y-139917899D01*
X159867497Y-139896983D01*
X159650499Y-139679623D01*
X159815668Y-139437220D01*
X159865864Y-139362781D01*
X159909919Y-139295972D01*
X159945362Y-139240665D01*
X159969719Y-139200729D01*
X159980522Y-139180036D01*
X159980838Y-139178563D01*
X159975143Y-139159058D01*
X159959826Y-139119822D01*
X159937537Y-139067430D01*
X159921893Y-139032355D01*
X159892641Y-138965201D01*
X159865094Y-138897358D01*
X159843737Y-138840034D01*
X159837935Y-138822572D01*
X159821452Y-138775938D01*
X159805340Y-138739905D01*
X159796490Y-138726287D01*
X159776960Y-138717952D01*
X159734334Y-138706137D01*
X159674145Y-138692181D01*
X159601922Y-138677422D01*
X159569600Y-138671355D01*
X159487522Y-138656273D01*
X159408795Y-138641669D01*
X159341109Y-138628980D01*
X159292160Y-138619642D01*
X159282943Y-138617839D01*
X159206743Y-138602799D01*
X159206743Y-138285492D01*
X159206914Y-138181154D01*
X159207616Y-138102213D01*
X159209134Y-138045038D01*
X159211749Y-138005999D01*
X159215746Y-137981465D01*
X159221409Y-137967805D01*
X159229020Y-137961389D01*
X159232143Y-137960199D01*
X159250978Y-137955980D01*
X159292588Y-137947562D01*
X159351630Y-137935961D01*
X159422757Y-137922195D01*
X159500625Y-137907280D01*
X159579887Y-137892232D01*
X159655198Y-137878069D01*
X159721213Y-137865806D01*
X159772587Y-137856461D01*
X159803975Y-137851050D01*
X159810959Y-137850114D01*
X159817285Y-137837596D01*
X159831290Y-137804246D01*
X159850355Y-137756377D01*
X159857634Y-137737629D01*
X159886996Y-137665195D01*
X159921571Y-137585170D01*
X159952537Y-137517728D01*
X159975323Y-137466159D01*
X159990482Y-137423785D01*
X159995542Y-137397834D01*
X159994736Y-137394356D01*
X159984041Y-137377936D01*
X159959620Y-137341417D01*
X159924095Y-137288687D01*
X159880087Y-137223635D01*
X159830217Y-137150151D01*
X159820356Y-137135645D01*
X159762492Y-137049704D01*
X159719956Y-136984261D01*
X159691054Y-136936304D01*
X159674090Y-136902820D01*
X159667367Y-136880795D01*
X159669190Y-136867217D01*
X159669236Y-136867131D01*
X159683586Y-136849297D01*
X159715323Y-136814817D01*
X159761010Y-136767268D01*
X159817204Y-136710222D01*
X159880468Y-136647255D01*
X159887602Y-136640227D01*
X159967330Y-136563020D01*
X160028857Y-136506330D01*
X160073421Y-136469110D01*
X160102257Y-136450315D01*
X160114958Y-136447889D01*
X160133494Y-136458471D01*
X160171961Y-136482916D01*
X160226386Y-136518612D01*
X160292798Y-136562947D01*
X160367225Y-136613311D01*
X160384601Y-136625160D01*
X160631297Y-136793626D01*
X160742706Y-136743062D01*
X160810457Y-136713595D01*
X160883183Y-136683959D01*
X160945703Y-136660330D01*
X160948457Y-136659358D01*
X160997360Y-136641457D01*
X161035057Y-136626320D01*
X161053425Y-136617210D01*
X161053456Y-136617184D01*
X161059285Y-136600717D01*
X161069192Y-136560219D01*
X161082195Y-136500242D01*
X161097309Y-136425340D01*
X161113552Y-136340064D01*
X161114881Y-136332875D01*
X161131175Y-136245014D01*
X161146133Y-136165260D01*
X161158791Y-136098681D01*
X161168186Y-136050347D01*
X161173354Y-136025325D01*
X161173444Y-136024943D01*
X161176589Y-136014299D01*
X161182704Y-136006262D01*
X161195453Y-136000467D01*
X161218500Y-135996547D01*
X161255509Y-135994135D01*
X161310144Y-135992865D01*
X161386067Y-135992371D01*
X161486944Y-135992286D01*
X161500000Y-135992286D01*
X161603910Y-135992348D01*
G37*
X163644876Y-140706335D02*
X163686667Y-140725344D01*
X163719469Y-140748378D01*
X163743503Y-140774133D01*
X163760097Y-140807358D01*
X163770577Y-140852800D01*
X163776271Y-140915207D01*
X163778507Y-140999327D01*
X163778743Y-141054721D01*
X163778743Y-141270826D01*
X163741774Y-141287670D01*
X163712656Y-141299981D01*
X163698231Y-141304514D01*
X163695472Y-141291025D01*
X163693282Y-141254653D01*
X163691942Y-141201542D01*
X163691657Y-141159372D01*
X163690434Y-141098447D01*
X163687136Y-141050115D01*
X163682321Y-141020518D01*
X163678496Y-141014229D01*
X163652783Y-141020652D01*
X163612418Y-141037125D01*
X163565679Y-141059458D01*
X163520845Y-141083457D01*
X163486193Y-141104930D01*
X163470002Y-141119685D01*
X163469938Y-141119845D01*
X163471330Y-141147152D01*
X163483818Y-141173219D01*
X163505743Y-141194392D01*
X163537743Y-141201474D01*
X163565092Y-141200649D01*
X163603826Y-141200042D01*
X163624158Y-141209116D01*
X163636369Y-141233092D01*
X163637909Y-141237613D01*
X163643203Y-141271806D01*
X163629047Y-141292568D01*
X163592148Y-141302462D01*
X163552289Y-141304292D01*
X163480562Y-141290727D01*
X163443432Y-141271355D01*
X163397576Y-141225845D01*
X163373256Y-141169983D01*
X163371073Y-141110957D01*
X163391629Y-141055953D01*
X163422549Y-141021486D01*
X163453420Y-141002189D01*
X163501942Y-140977759D01*
X163558485Y-140952985D01*
X163567910Y-140949199D01*
X163630019Y-140921791D01*
X163665822Y-140897634D01*
X163677337Y-140873619D01*
X163666580Y-140846635D01*
X163648114Y-140825543D01*
X163604469Y-140799572D01*
X163556446Y-140797624D01*
X163512406Y-140817637D01*
X163480709Y-140857551D01*
X163476549Y-140867848D01*
X163452327Y-140905724D01*
X163416965Y-140933842D01*
X163372343Y-140956917D01*
X163372343Y-140891485D01*
X163374969Y-140851506D01*
X163386230Y-140819997D01*
X163411199Y-140786378D01*
X163435169Y-140760484D01*
X163472441Y-140723817D01*
X163501401Y-140704121D01*
X163532505Y-140696220D01*
X163567713Y-140694914D01*
X163644876Y-140706335D01*
G36*
X163644876Y-140706335D02*
G01*
X163686667Y-140725344D01*
X163719469Y-140748378D01*
X163743503Y-140774133D01*
X163760097Y-140807358D01*
X163770577Y-140852800D01*
X163776271Y-140915207D01*
X163778507Y-140999327D01*
X163778743Y-141054721D01*
X163778743Y-141270826D01*
X163741774Y-141287670D01*
X163712656Y-141299981D01*
X163698231Y-141304514D01*
X163695472Y-141291025D01*
X163693282Y-141254653D01*
X163691942Y-141201542D01*
X163691657Y-141159372D01*
X163690434Y-141098447D01*
X163687136Y-141050115D01*
X163682321Y-141020518D01*
X163678496Y-141014229D01*
X163652783Y-141020652D01*
X163612418Y-141037125D01*
X163565679Y-141059458D01*
X163520845Y-141083457D01*
X163486193Y-141104930D01*
X163470002Y-141119685D01*
X163469938Y-141119845D01*
X163471330Y-141147152D01*
X163483818Y-141173219D01*
X163505743Y-141194392D01*
X163537743Y-141201474D01*
X163565092Y-141200649D01*
X163603826Y-141200042D01*
X163624158Y-141209116D01*
X163636369Y-141233092D01*
X163637909Y-141237613D01*
X163643203Y-141271806D01*
X163629047Y-141292568D01*
X163592148Y-141302462D01*
X163552289Y-141304292D01*
X163480562Y-141290727D01*
X163443432Y-141271355D01*
X163397576Y-141225845D01*
X163373256Y-141169983D01*
X163371073Y-141110957D01*
X163391629Y-141055953D01*
X163422549Y-141021486D01*
X163453420Y-141002189D01*
X163501942Y-140977759D01*
X163558485Y-140952985D01*
X163567910Y-140949199D01*
X163630019Y-140921791D01*
X163665822Y-140897634D01*
X163677337Y-140873619D01*
X163666580Y-140846635D01*
X163648114Y-140825543D01*
X163604469Y-140799572D01*
X163556446Y-140797624D01*
X163512406Y-140817637D01*
X163480709Y-140857551D01*
X163476549Y-140867848D01*
X163452327Y-140905724D01*
X163416965Y-140933842D01*
X163372343Y-140956917D01*
X163372343Y-140891485D01*
X163374969Y-140851506D01*
X163386230Y-140819997D01*
X163411199Y-140786378D01*
X163435169Y-140760484D01*
X163472441Y-140723817D01*
X163501401Y-140704121D01*
X163532505Y-140696220D01*
X163567713Y-140694914D01*
X163644876Y-140706335D01*
G37*
X159343233Y-140892748D02*
X159482514Y-140892748D01*
X159484324Y-140924753D01*
X159494222Y-140934093D01*
X159518898Y-140927105D01*
X159557795Y-140910587D01*
X159601275Y-140889881D01*
X159602356Y-140889333D01*
X159639209Y-140869949D01*
X159654000Y-140857013D01*
X159650353Y-140843451D01*
X159634995Y-140825632D01*
X159595923Y-140799845D01*
X159553846Y-140797950D01*
X159516103Y-140816717D01*
X159490034Y-140852915D01*
X159482514Y-140892748D01*
X159343233Y-140892748D01*
X159347194Y-140856027D01*
X159371550Y-140786212D01*
X159405456Y-140737302D01*
X159466653Y-140687878D01*
X159534063Y-140663359D01*
X159602880Y-140661797D01*
X159668303Y-140681239D01*
X159725527Y-140719735D01*
X159769749Y-140775335D01*
X159796167Y-140846086D01*
X159801510Y-140898162D01*
X159800903Y-140919893D01*
X159795822Y-140936531D01*
X159781855Y-140951437D01*
X159754589Y-140967973D01*
X159709612Y-140989498D01*
X159642511Y-141019374D01*
X159642171Y-141019524D01*
X159580407Y-141047813D01*
X159529759Y-141072933D01*
X159495404Y-141092179D01*
X159482518Y-141102848D01*
X159482514Y-141102934D01*
X159493872Y-141126166D01*
X159520431Y-141151774D01*
X159550923Y-141170221D01*
X159566370Y-141173886D01*
X159608515Y-141161212D01*
X159644808Y-141129471D01*
X159662517Y-141094572D01*
X159679552Y-141068845D01*
X159712922Y-141039546D01*
X159752149Y-141014235D01*
X159786756Y-141000471D01*
X159793993Y-140999714D01*
X159802139Y-141012160D01*
X159802630Y-141043972D01*
X159796643Y-141086866D01*
X159785357Y-141132558D01*
X159769950Y-141172761D01*
X159769171Y-141174322D01*
X159722804Y-141239062D01*
X159662711Y-141283097D01*
X159594465Y-141304711D01*
X159523638Y-141302185D01*
X159455804Y-141273804D01*
X159452788Y-141271808D01*
X159399427Y-141223448D01*
X159364340Y-141160352D01*
X159344922Y-141077387D01*
X159342316Y-141054078D01*
X159337701Y-140944055D01*
X159343233Y-140892748D01*
G36*
X159343233Y-140892748D02*
G01*
X159482514Y-140892748D01*
X159484324Y-140924753D01*
X159494222Y-140934093D01*
X159518898Y-140927105D01*
X159557795Y-140910587D01*
X159601275Y-140889881D01*
X159602356Y-140889333D01*
X159639209Y-140869949D01*
X159654000Y-140857013D01*
X159650353Y-140843451D01*
X159634995Y-140825632D01*
X159595923Y-140799845D01*
X159553846Y-140797950D01*
X159516103Y-140816717D01*
X159490034Y-140852915D01*
X159482514Y-140892748D01*
X159343233Y-140892748D01*
X159347194Y-140856027D01*
X159371550Y-140786212D01*
X159405456Y-140737302D01*
X159466653Y-140687878D01*
X159534063Y-140663359D01*
X159602880Y-140661797D01*
X159668303Y-140681239D01*
X159725527Y-140719735D01*
X159769749Y-140775335D01*
X159796167Y-140846086D01*
X159801510Y-140898162D01*
X159800903Y-140919893D01*
X159795822Y-140936531D01*
X159781855Y-140951437D01*
X159754589Y-140967973D01*
X159709612Y-140989498D01*
X159642511Y-141019374D01*
X159642171Y-141019524D01*
X159580407Y-141047813D01*
X159529759Y-141072933D01*
X159495404Y-141092179D01*
X159482518Y-141102848D01*
X159482514Y-141102934D01*
X159493872Y-141126166D01*
X159520431Y-141151774D01*
X159550923Y-141170221D01*
X159566370Y-141173886D01*
X159608515Y-141161212D01*
X159644808Y-141129471D01*
X159662517Y-141094572D01*
X159679552Y-141068845D01*
X159712922Y-141039546D01*
X159752149Y-141014235D01*
X159786756Y-141000471D01*
X159793993Y-140999714D01*
X159802139Y-141012160D01*
X159802630Y-141043972D01*
X159796643Y-141086866D01*
X159785357Y-141132558D01*
X159769950Y-141172761D01*
X159769171Y-141174322D01*
X159722804Y-141239062D01*
X159662711Y-141283097D01*
X159594465Y-141304711D01*
X159523638Y-141302185D01*
X159455804Y-141273804D01*
X159452788Y-141271808D01*
X159399427Y-141223448D01*
X159364340Y-141160352D01*
X159344922Y-141077387D01*
X159342316Y-141054078D01*
X159337701Y-140944055D01*
X159343233Y-140892748D01*
G37*
X162029926Y-140699755D02*
X162095858Y-140724084D01*
X162149273Y-140767117D01*
X162170164Y-140797409D01*
X162192939Y-140852994D01*
X162192466Y-140893186D01*
X162168562Y-140920217D01*
X162159717Y-140924813D01*
X162121530Y-140939144D01*
X162102028Y-140935472D01*
X162095422Y-140911407D01*
X162095086Y-140898114D01*
X162082992Y-140849210D01*
X162051471Y-140814999D01*
X162007659Y-140798476D01*
X161958695Y-140802634D01*
X161918894Y-140824227D01*
X161905450Y-140836544D01*
X161895921Y-140851487D01*
X161889485Y-140874075D01*
X161885317Y-140909328D01*
X161882597Y-140962266D01*
X161880502Y-141037907D01*
X161879960Y-141061857D01*
X161877981Y-141143790D01*
X161875731Y-141201455D01*
X161872357Y-141239608D01*
X161867006Y-141263004D01*
X161858824Y-141276398D01*
X161846959Y-141284545D01*
X161839362Y-141288144D01*
X161807102Y-141300452D01*
X161788111Y-141304514D01*
X161781836Y-141290948D01*
X161778006Y-141249934D01*
X161776600Y-141180999D01*
X161777598Y-141083669D01*
X161777908Y-141068657D01*
X161780101Y-140979859D01*
X161782693Y-140915019D01*
X161786382Y-140869067D01*
X161791864Y-140836935D01*
X161799835Y-140813553D01*
X161810993Y-140793852D01*
X161816830Y-140785410D01*
X161850296Y-140748057D01*
X161887727Y-140719003D01*
X161892309Y-140716467D01*
X161959426Y-140696443D01*
X162029926Y-140699755D01*
G36*
X162029926Y-140699755D02*
G01*
X162095858Y-140724084D01*
X162149273Y-140767117D01*
X162170164Y-140797409D01*
X162192939Y-140852994D01*
X162192466Y-140893186D01*
X162168562Y-140920217D01*
X162159717Y-140924813D01*
X162121530Y-140939144D01*
X162102028Y-140935472D01*
X162095422Y-140911407D01*
X162095086Y-140898114D01*
X162082992Y-140849210D01*
X162051471Y-140814999D01*
X162007659Y-140798476D01*
X161958695Y-140802634D01*
X161918894Y-140824227D01*
X161905450Y-140836544D01*
X161895921Y-140851487D01*
X161889485Y-140874075D01*
X161885317Y-140909328D01*
X161882597Y-140962266D01*
X161880502Y-141037907D01*
X161879960Y-141061857D01*
X161877981Y-141143790D01*
X161875731Y-141201455D01*
X161872357Y-141239608D01*
X161867006Y-141263004D01*
X161858824Y-141276398D01*
X161846959Y-141284545D01*
X161839362Y-141288144D01*
X161807102Y-141300452D01*
X161788111Y-141304514D01*
X161781836Y-141290948D01*
X161778006Y-141249934D01*
X161776600Y-141180999D01*
X161777598Y-141083669D01*
X161777908Y-141068657D01*
X161780101Y-140979859D01*
X161782693Y-140915019D01*
X161786382Y-140869067D01*
X161791864Y-140836935D01*
X161799835Y-140813553D01*
X161810993Y-140793852D01*
X161816830Y-140785410D01*
X161850296Y-140748057D01*
X161887727Y-140719003D01*
X161892309Y-140716467D01*
X161959426Y-140696443D01*
X162029926Y-140699755D01*
G37*
X158791472Y-140978603D02*
X158930971Y-140978603D01*
X158931755Y-141040499D01*
X158935240Y-141080997D01*
X158943124Y-141107708D01*
X158957105Y-141128244D01*
X158966597Y-141138260D01*
X159005404Y-141167567D01*
X159039763Y-141169952D01*
X159075216Y-141145750D01*
X159076114Y-141144857D01*
X159090539Y-141126153D01*
X159099313Y-141100732D01*
X159103739Y-141061584D01*
X159105118Y-141001697D01*
X159105143Y-140988430D01*
X159101812Y-140905901D01*
X159090969Y-140848691D01*
X159071340Y-140813766D01*
X159041650Y-140798094D01*
X159024491Y-140796514D01*
X158983766Y-140803926D01*
X158955832Y-140828330D01*
X158939017Y-140872980D01*
X158931650Y-140941130D01*
X158930971Y-140978603D01*
X158791472Y-140978603D01*
X158791708Y-140965245D01*
X158793677Y-140900333D01*
X158796450Y-140852958D01*
X158800388Y-140819290D01*
X158805849Y-140795498D01*
X158813192Y-140777753D01*
X158822777Y-140762224D01*
X158826887Y-140756381D01*
X158881405Y-140701185D01*
X158950336Y-140669890D01*
X159030072Y-140661165D01*
X159099744Y-140669918D01*
X159155201Y-140697568D01*
X159204148Y-140748480D01*
X159217629Y-140767338D01*
X159232314Y-140792015D01*
X159241842Y-140818816D01*
X159247293Y-140854587D01*
X159249747Y-140906169D01*
X159250286Y-140974267D01*
X159247852Y-141067588D01*
X159239394Y-141137657D01*
X159223174Y-141189931D01*
X159197454Y-141229869D01*
X159160497Y-141262929D01*
X159157782Y-141264886D01*
X159121360Y-141284908D01*
X159077502Y-141294815D01*
X159021724Y-141297257D01*
X158931048Y-141297257D01*
X158931010Y-141385283D01*
X158930166Y-141434308D01*
X158925024Y-141463065D01*
X158911587Y-141480311D01*
X158885858Y-141494808D01*
X158879679Y-141497769D01*
X158850764Y-141511648D01*
X158828376Y-141520414D01*
X158811729Y-141521171D01*
X158800036Y-141511023D01*
X158792510Y-141487073D01*
X158788366Y-141446426D01*
X158786815Y-141386186D01*
X158787071Y-141303455D01*
X158788349Y-141195339D01*
X158788748Y-141163000D01*
X158790185Y-141051524D01*
X158791472Y-140978603D01*
G36*
X158791472Y-140978603D02*
G01*
X158930971Y-140978603D01*
X158931755Y-141040499D01*
X158935240Y-141080997D01*
X158943124Y-141107708D01*
X158957105Y-141128244D01*
X158966597Y-141138260D01*
X159005404Y-141167567D01*
X159039763Y-141169952D01*
X159075216Y-141145750D01*
X159076114Y-141144857D01*
X159090539Y-141126153D01*
X159099313Y-141100732D01*
X159103739Y-141061584D01*
X159105118Y-141001697D01*
X159105143Y-140988430D01*
X159101812Y-140905901D01*
X159090969Y-140848691D01*
X159071340Y-140813766D01*
X159041650Y-140798094D01*
X159024491Y-140796514D01*
X158983766Y-140803926D01*
X158955832Y-140828330D01*
X158939017Y-140872980D01*
X158931650Y-140941130D01*
X158930971Y-140978603D01*
X158791472Y-140978603D01*
X158791708Y-140965245D01*
X158793677Y-140900333D01*
X158796450Y-140852958D01*
X158800388Y-140819290D01*
X158805849Y-140795498D01*
X158813192Y-140777753D01*
X158822777Y-140762224D01*
X158826887Y-140756381D01*
X158881405Y-140701185D01*
X158950336Y-140669890D01*
X159030072Y-140661165D01*
X159099744Y-140669918D01*
X159155201Y-140697568D01*
X159204148Y-140748480D01*
X159217629Y-140767338D01*
X159232314Y-140792015D01*
X159241842Y-140818816D01*
X159247293Y-140854587D01*
X159249747Y-140906169D01*
X159250286Y-140974267D01*
X159247852Y-141067588D01*
X159239394Y-141137657D01*
X159223174Y-141189931D01*
X159197454Y-141229869D01*
X159160497Y-141262929D01*
X159157782Y-141264886D01*
X159121360Y-141284908D01*
X159077502Y-141294815D01*
X159021724Y-141297257D01*
X158931048Y-141297257D01*
X158931010Y-141385283D01*
X158930166Y-141434308D01*
X158925024Y-141463065D01*
X158911587Y-141480311D01*
X158885858Y-141494808D01*
X158879679Y-141497769D01*
X158850764Y-141511648D01*
X158828376Y-141520414D01*
X158811729Y-141521171D01*
X158800036Y-141511023D01*
X158792510Y-141487073D01*
X158788366Y-141446426D01*
X158786815Y-141386186D01*
X158787071Y-141303455D01*
X158788349Y-141195339D01*
X158788748Y-141163000D01*
X158790185Y-141051524D01*
X158791472Y-140978603D01*
G37*
D13*
%TO.C,R2*%
X169000000Y-105460000D02*
X169000000Y-104690000D01*
X169000000Y-97380000D02*
X169000000Y-98150000D01*
X170370000Y-98150000D02*
X167630000Y-98150000D01*
X167630000Y-104690000D02*
X170370000Y-104690000D01*
X167630000Y-98150000D02*
X167630000Y-104690000D01*
X170370000Y-104690000D02*
X170370000Y-98150000D01*
D14*
%TO.C,PMOD1*%
X154940000Y-147320000D02*
X170180000Y-147320000D01*
X170180000Y-147320000D02*
X170180000Y-142240000D01*
X154940000Y-142240000D02*
X154940000Y-147320000D01*
X165100000Y-142240000D02*
X165100000Y-147320000D01*
X170180000Y-142240000D02*
X154940000Y-142240000D01*
D13*
%TO.C,R1*%
X168910000Y-127786000D02*
X168910000Y-128556000D01*
X170280000Y-128556000D02*
X167540000Y-128556000D01*
X167540000Y-128556000D02*
X167540000Y-135096000D01*
X170280000Y-135096000D02*
X170280000Y-128556000D01*
X167540000Y-135096000D02*
X170280000Y-135096000D01*
X168910000Y-135866000D02*
X168910000Y-135096000D01*
%TO.C,J1*%
X156340000Y-88320000D02*
X156340000Y-89320000D01*
X156340000Y-89320000D02*
X157340000Y-88820000D01*
X157340000Y-88820000D02*
X156340000Y-88320000D01*
X157730000Y-83610000D02*
X166850000Y-83610000D01*
X157730000Y-107090000D02*
X159040000Y-107090000D01*
X157730000Y-134670000D02*
X157730000Y-83610000D01*
X159040000Y-84910000D02*
X165540000Y-84910000D01*
X159040000Y-107090000D02*
X159040000Y-84910000D01*
X159040000Y-111190000D02*
X157730000Y-111190000D01*
X159040000Y-111190000D02*
X159040000Y-111190000D01*
X159040000Y-133370000D02*
X159040000Y-111190000D01*
X165540000Y-84910000D02*
X165540000Y-133370000D01*
X165540000Y-133370000D02*
X159040000Y-133370000D01*
X166850000Y-83610000D02*
X166850000Y-134670000D01*
X166850000Y-134670000D02*
X157730000Y-134670000D01*
%TD*%
D15*
%TO.C,PMOD1*%
X156210000Y-143510000D03*
D16*
X158750000Y-143510000D03*
X161290000Y-143510000D03*
X163830000Y-143510000D03*
X166370000Y-143510000D03*
X168910000Y-143510000D03*
X156210000Y-146050000D03*
X158750000Y-146050000D03*
X161290000Y-146050000D03*
X163830000Y-146050000D03*
X166370000Y-146050000D03*
X168910000Y-146050000D03*
%TD*%
M02*
