%TF.GenerationSoftware,KiCad,Pcbnew,7.0.1*%
%TF.CreationDate,2024-01-08T20:06:19+01:00*%
%TF.ProjectId,pmod-floppy,706d6f64-2d66-46c6-9f70-70792e6b6963,rev?*%
%TF.SameCoordinates,Original*%
%TF.FileFunction,Legend,Bot*%
%TF.FilePolarity,Positive*%
%FSLAX46Y46*%
G04 Gerber Fmt 4.6, Leading zero omitted, Abs format (unit mm)*
G04 Created by KiCad (PCBNEW 7.0.1) date 2024-01-08 20:06:19*
%MOMM*%
%LPD*%
G01*
G04 APERTURE LIST*
%ADD10C,0.150000*%
%ADD11C,0.304800*%
G04 APERTURE END LIST*
D10*
X153523808Y-109571427D02*
X153571427Y-109714284D01*
X153571427Y-109714284D02*
X153619046Y-109761903D01*
X153619046Y-109761903D02*
X153714284Y-109809522D01*
X153714284Y-109809522D02*
X153857141Y-109809522D01*
X153857141Y-109809522D02*
X153952379Y-109761903D01*
X153952379Y-109761903D02*
X153999999Y-109714284D01*
X153999999Y-109714284D02*
X154047618Y-109619046D01*
X154047618Y-109619046D02*
X154047618Y-109238094D01*
X154047618Y-109238094D02*
X153047618Y-109238094D01*
X153047618Y-109238094D02*
X153047618Y-109571427D01*
X153047618Y-109571427D02*
X153095237Y-109666665D01*
X153095237Y-109666665D02*
X153142856Y-109714284D01*
X153142856Y-109714284D02*
X153238094Y-109761903D01*
X153238094Y-109761903D02*
X153333332Y-109761903D01*
X153333332Y-109761903D02*
X153428570Y-109714284D01*
X153428570Y-109714284D02*
X153476189Y-109666665D01*
X153476189Y-109666665D02*
X153523808Y-109571427D01*
X153523808Y-109571427D02*
X153523808Y-109238094D01*
X153047618Y-110428570D02*
X153047618Y-110523808D01*
X153047618Y-110523808D02*
X153095237Y-110619046D01*
X153095237Y-110619046D02*
X153142856Y-110666665D01*
X153142856Y-110666665D02*
X153238094Y-110714284D01*
X153238094Y-110714284D02*
X153428570Y-110761903D01*
X153428570Y-110761903D02*
X153666665Y-110761903D01*
X153666665Y-110761903D02*
X153857141Y-110714284D01*
X153857141Y-110714284D02*
X153952379Y-110666665D01*
X153952379Y-110666665D02*
X153999999Y-110619046D01*
X153999999Y-110619046D02*
X154047618Y-110523808D01*
X154047618Y-110523808D02*
X154047618Y-110428570D01*
X154047618Y-110428570D02*
X153999999Y-110333332D01*
X153999999Y-110333332D02*
X153952379Y-110285713D01*
X153952379Y-110285713D02*
X153857141Y-110238094D01*
X153857141Y-110238094D02*
X153666665Y-110190475D01*
X153666665Y-110190475D02*
X153428570Y-110190475D01*
X153428570Y-110190475D02*
X153238094Y-110238094D01*
X153238094Y-110238094D02*
X153142856Y-110285713D01*
X153142856Y-110285713D02*
X153095237Y-110333332D01*
X153095237Y-110333332D02*
X153047618Y-110428570D01*
X153047618Y-111857142D02*
X154047618Y-112095237D01*
X154047618Y-112095237D02*
X153333332Y-112285713D01*
X153333332Y-112285713D02*
X154047618Y-112476189D01*
X154047618Y-112476189D02*
X153047618Y-112714285D01*
X154047618Y-113095237D02*
X153380951Y-113095237D01*
X153571427Y-113095237D02*
X153476189Y-113142856D01*
X153476189Y-113142856D02*
X153428570Y-113190475D01*
X153428570Y-113190475D02*
X153380951Y-113285713D01*
X153380951Y-113285713D02*
X153380951Y-113380951D01*
X154047618Y-113714285D02*
X153380951Y-113714285D01*
X153047618Y-113714285D02*
X153095237Y-113666666D01*
X153095237Y-113666666D02*
X153142856Y-113714285D01*
X153142856Y-113714285D02*
X153095237Y-113761904D01*
X153095237Y-113761904D02*
X153047618Y-113714285D01*
X153047618Y-113714285D02*
X153142856Y-113714285D01*
X153380951Y-114047618D02*
X153380951Y-114428570D01*
X153047618Y-114190475D02*
X153904760Y-114190475D01*
X153904760Y-114190475D02*
X153999999Y-114238094D01*
X153999999Y-114238094D02*
X154047618Y-114333332D01*
X154047618Y-114333332D02*
X154047618Y-114428570D01*
X153999999Y-115142856D02*
X154047618Y-115047618D01*
X154047618Y-115047618D02*
X154047618Y-114857142D01*
X154047618Y-114857142D02*
X153999999Y-114761904D01*
X153999999Y-114761904D02*
X153904760Y-114714285D01*
X153904760Y-114714285D02*
X153523808Y-114714285D01*
X153523808Y-114714285D02*
X153428570Y-114761904D01*
X153428570Y-114761904D02*
X153380951Y-114857142D01*
X153380951Y-114857142D02*
X153380951Y-115047618D01*
X153380951Y-115047618D02*
X153428570Y-115142856D01*
X153428570Y-115142856D02*
X153523808Y-115190475D01*
X153523808Y-115190475D02*
X153619046Y-115190475D01*
X153619046Y-115190475D02*
X153714284Y-114714285D01*
X154047618Y-116380952D02*
X153047618Y-116380952D01*
X153047618Y-116380952D02*
X153047618Y-116619047D01*
X153047618Y-116619047D02*
X153095237Y-116761904D01*
X153095237Y-116761904D02*
X153190475Y-116857142D01*
X153190475Y-116857142D02*
X153285713Y-116904761D01*
X153285713Y-116904761D02*
X153476189Y-116952380D01*
X153476189Y-116952380D02*
X153619046Y-116952380D01*
X153619046Y-116952380D02*
X153809522Y-116904761D01*
X153809522Y-116904761D02*
X153904760Y-116857142D01*
X153904760Y-116857142D02*
X153999999Y-116761904D01*
X153999999Y-116761904D02*
X154047618Y-116619047D01*
X154047618Y-116619047D02*
X154047618Y-116380952D01*
X154047618Y-117809523D02*
X153523808Y-117809523D01*
X153523808Y-117809523D02*
X153428570Y-117761904D01*
X153428570Y-117761904D02*
X153380951Y-117666666D01*
X153380951Y-117666666D02*
X153380951Y-117476190D01*
X153380951Y-117476190D02*
X153428570Y-117380952D01*
X153999999Y-117809523D02*
X154047618Y-117714285D01*
X154047618Y-117714285D02*
X154047618Y-117476190D01*
X154047618Y-117476190D02*
X153999999Y-117380952D01*
X153999999Y-117380952D02*
X153904760Y-117333333D01*
X153904760Y-117333333D02*
X153809522Y-117333333D01*
X153809522Y-117333333D02*
X153714284Y-117380952D01*
X153714284Y-117380952D02*
X153666665Y-117476190D01*
X153666665Y-117476190D02*
X153666665Y-117714285D01*
X153666665Y-117714285D02*
X153619046Y-117809523D01*
X153380951Y-118142857D02*
X153380951Y-118523809D01*
X153047618Y-118285714D02*
X153904760Y-118285714D01*
X153904760Y-118285714D02*
X153999999Y-118333333D01*
X153999999Y-118333333D02*
X154047618Y-118428571D01*
X154047618Y-118428571D02*
X154047618Y-118523809D01*
X154047618Y-119285714D02*
X153523808Y-119285714D01*
X153523808Y-119285714D02*
X153428570Y-119238095D01*
X153428570Y-119238095D02*
X153380951Y-119142857D01*
X153380951Y-119142857D02*
X153380951Y-118952381D01*
X153380951Y-118952381D02*
X153428570Y-118857143D01*
X153999999Y-119285714D02*
X154047618Y-119190476D01*
X154047618Y-119190476D02*
X154047618Y-118952381D01*
X154047618Y-118952381D02*
X153999999Y-118857143D01*
X153999999Y-118857143D02*
X153904760Y-118809524D01*
X153904760Y-118809524D02*
X153809522Y-118809524D01*
X153809522Y-118809524D02*
X153714284Y-118857143D01*
X153714284Y-118857143D02*
X153666665Y-118952381D01*
X153666665Y-118952381D02*
X153666665Y-119190476D01*
X153666665Y-119190476D02*
X153619046Y-119285714D01*
X155143808Y-109571427D02*
X155191427Y-109714284D01*
X155191427Y-109714284D02*
X155239046Y-109761903D01*
X155239046Y-109761903D02*
X155334284Y-109809522D01*
X155334284Y-109809522D02*
X155477141Y-109809522D01*
X155477141Y-109809522D02*
X155572379Y-109761903D01*
X155572379Y-109761903D02*
X155619999Y-109714284D01*
X155619999Y-109714284D02*
X155667618Y-109619046D01*
X155667618Y-109619046D02*
X155667618Y-109238094D01*
X155667618Y-109238094D02*
X154667618Y-109238094D01*
X154667618Y-109238094D02*
X154667618Y-109571427D01*
X154667618Y-109571427D02*
X154715237Y-109666665D01*
X154715237Y-109666665D02*
X154762856Y-109714284D01*
X154762856Y-109714284D02*
X154858094Y-109761903D01*
X154858094Y-109761903D02*
X154953332Y-109761903D01*
X154953332Y-109761903D02*
X155048570Y-109714284D01*
X155048570Y-109714284D02*
X155096189Y-109666665D01*
X155096189Y-109666665D02*
X155143808Y-109571427D01*
X155143808Y-109571427D02*
X155143808Y-109238094D01*
X155667618Y-110761903D02*
X155667618Y-110190475D01*
X155667618Y-110476189D02*
X154667618Y-110476189D01*
X154667618Y-110476189D02*
X154810475Y-110380951D01*
X154810475Y-110380951D02*
X154905713Y-110285713D01*
X154905713Y-110285713D02*
X154953332Y-110190475D01*
X154667618Y-111857142D02*
X155667618Y-112095237D01*
X155667618Y-112095237D02*
X154953332Y-112285713D01*
X154953332Y-112285713D02*
X155667618Y-112476189D01*
X155667618Y-112476189D02*
X154667618Y-112714285D01*
X155667618Y-113095237D02*
X155000951Y-113095237D01*
X155191427Y-113095237D02*
X155096189Y-113142856D01*
X155096189Y-113142856D02*
X155048570Y-113190475D01*
X155048570Y-113190475D02*
X155000951Y-113285713D01*
X155000951Y-113285713D02*
X155000951Y-113380951D01*
X155667618Y-113714285D02*
X155000951Y-113714285D01*
X154667618Y-113714285D02*
X154715237Y-113666666D01*
X154715237Y-113666666D02*
X154762856Y-113714285D01*
X154762856Y-113714285D02*
X154715237Y-113761904D01*
X154715237Y-113761904D02*
X154667618Y-113714285D01*
X154667618Y-113714285D02*
X154762856Y-113714285D01*
X155000951Y-114047618D02*
X155000951Y-114428570D01*
X154667618Y-114190475D02*
X155524760Y-114190475D01*
X155524760Y-114190475D02*
X155619999Y-114238094D01*
X155619999Y-114238094D02*
X155667618Y-114333332D01*
X155667618Y-114333332D02*
X155667618Y-114428570D01*
X155619999Y-115142856D02*
X155667618Y-115047618D01*
X155667618Y-115047618D02*
X155667618Y-114857142D01*
X155667618Y-114857142D02*
X155619999Y-114761904D01*
X155619999Y-114761904D02*
X155524760Y-114714285D01*
X155524760Y-114714285D02*
X155143808Y-114714285D01*
X155143808Y-114714285D02*
X155048570Y-114761904D01*
X155048570Y-114761904D02*
X155000951Y-114857142D01*
X155000951Y-114857142D02*
X155000951Y-115047618D01*
X155000951Y-115047618D02*
X155048570Y-115142856D01*
X155048570Y-115142856D02*
X155143808Y-115190475D01*
X155143808Y-115190475D02*
X155239046Y-115190475D01*
X155239046Y-115190475D02*
X155334284Y-114714285D01*
X154715237Y-116904761D02*
X154667618Y-116809523D01*
X154667618Y-116809523D02*
X154667618Y-116666666D01*
X154667618Y-116666666D02*
X154715237Y-116523809D01*
X154715237Y-116523809D02*
X154810475Y-116428571D01*
X154810475Y-116428571D02*
X154905713Y-116380952D01*
X154905713Y-116380952D02*
X155096189Y-116333333D01*
X155096189Y-116333333D02*
X155239046Y-116333333D01*
X155239046Y-116333333D02*
X155429522Y-116380952D01*
X155429522Y-116380952D02*
X155524760Y-116428571D01*
X155524760Y-116428571D02*
X155619999Y-116523809D01*
X155619999Y-116523809D02*
X155667618Y-116666666D01*
X155667618Y-116666666D02*
X155667618Y-116761904D01*
X155667618Y-116761904D02*
X155619999Y-116904761D01*
X155619999Y-116904761D02*
X155572379Y-116952380D01*
X155572379Y-116952380D02*
X155239046Y-116952380D01*
X155239046Y-116952380D02*
X155239046Y-116761904D01*
X155667618Y-117809523D02*
X155143808Y-117809523D01*
X155143808Y-117809523D02*
X155048570Y-117761904D01*
X155048570Y-117761904D02*
X155000951Y-117666666D01*
X155000951Y-117666666D02*
X155000951Y-117476190D01*
X155000951Y-117476190D02*
X155048570Y-117380952D01*
X155619999Y-117809523D02*
X155667618Y-117714285D01*
X155667618Y-117714285D02*
X155667618Y-117476190D01*
X155667618Y-117476190D02*
X155619999Y-117380952D01*
X155619999Y-117380952D02*
X155524760Y-117333333D01*
X155524760Y-117333333D02*
X155429522Y-117333333D01*
X155429522Y-117333333D02*
X155334284Y-117380952D01*
X155334284Y-117380952D02*
X155286665Y-117476190D01*
X155286665Y-117476190D02*
X155286665Y-117714285D01*
X155286665Y-117714285D02*
X155239046Y-117809523D01*
X155000951Y-118142857D02*
X155000951Y-118523809D01*
X154667618Y-118285714D02*
X155524760Y-118285714D01*
X155524760Y-118285714D02*
X155619999Y-118333333D01*
X155619999Y-118333333D02*
X155667618Y-118428571D01*
X155667618Y-118428571D02*
X155667618Y-118523809D01*
X155619999Y-119238095D02*
X155667618Y-119142857D01*
X155667618Y-119142857D02*
X155667618Y-118952381D01*
X155667618Y-118952381D02*
X155619999Y-118857143D01*
X155619999Y-118857143D02*
X155524760Y-118809524D01*
X155524760Y-118809524D02*
X155143808Y-118809524D01*
X155143808Y-118809524D02*
X155048570Y-118857143D01*
X155048570Y-118857143D02*
X155000951Y-118952381D01*
X155000951Y-118952381D02*
X155000951Y-119142857D01*
X155000951Y-119142857D02*
X155048570Y-119238095D01*
X155048570Y-119238095D02*
X155143808Y-119285714D01*
X155143808Y-119285714D02*
X155239046Y-119285714D01*
X155239046Y-119285714D02*
X155334284Y-118809524D01*
X156763808Y-109571427D02*
X156811427Y-109714284D01*
X156811427Y-109714284D02*
X156859046Y-109761903D01*
X156859046Y-109761903D02*
X156954284Y-109809522D01*
X156954284Y-109809522D02*
X157097141Y-109809522D01*
X157097141Y-109809522D02*
X157192379Y-109761903D01*
X157192379Y-109761903D02*
X157239999Y-109714284D01*
X157239999Y-109714284D02*
X157287618Y-109619046D01*
X157287618Y-109619046D02*
X157287618Y-109238094D01*
X157287618Y-109238094D02*
X156287618Y-109238094D01*
X156287618Y-109238094D02*
X156287618Y-109571427D01*
X156287618Y-109571427D02*
X156335237Y-109666665D01*
X156335237Y-109666665D02*
X156382856Y-109714284D01*
X156382856Y-109714284D02*
X156478094Y-109761903D01*
X156478094Y-109761903D02*
X156573332Y-109761903D01*
X156573332Y-109761903D02*
X156668570Y-109714284D01*
X156668570Y-109714284D02*
X156716189Y-109666665D01*
X156716189Y-109666665D02*
X156763808Y-109571427D01*
X156763808Y-109571427D02*
X156763808Y-109238094D01*
X156382856Y-110190475D02*
X156335237Y-110238094D01*
X156335237Y-110238094D02*
X156287618Y-110333332D01*
X156287618Y-110333332D02*
X156287618Y-110571427D01*
X156287618Y-110571427D02*
X156335237Y-110666665D01*
X156335237Y-110666665D02*
X156382856Y-110714284D01*
X156382856Y-110714284D02*
X156478094Y-110761903D01*
X156478094Y-110761903D02*
X156573332Y-110761903D01*
X156573332Y-110761903D02*
X156716189Y-110714284D01*
X156716189Y-110714284D02*
X157287618Y-110142856D01*
X157287618Y-110142856D02*
X157287618Y-110761903D01*
X157287618Y-112523808D02*
X156811427Y-112190475D01*
X157287618Y-111952380D02*
X156287618Y-111952380D01*
X156287618Y-111952380D02*
X156287618Y-112333332D01*
X156287618Y-112333332D02*
X156335237Y-112428570D01*
X156335237Y-112428570D02*
X156382856Y-112476189D01*
X156382856Y-112476189D02*
X156478094Y-112523808D01*
X156478094Y-112523808D02*
X156620951Y-112523808D01*
X156620951Y-112523808D02*
X156716189Y-112476189D01*
X156716189Y-112476189D02*
X156763808Y-112428570D01*
X156763808Y-112428570D02*
X156811427Y-112333332D01*
X156811427Y-112333332D02*
X156811427Y-111952380D01*
X157239999Y-113333332D02*
X157287618Y-113238094D01*
X157287618Y-113238094D02*
X157287618Y-113047618D01*
X157287618Y-113047618D02*
X157239999Y-112952380D01*
X157239999Y-112952380D02*
X157144760Y-112904761D01*
X157144760Y-112904761D02*
X156763808Y-112904761D01*
X156763808Y-112904761D02*
X156668570Y-112952380D01*
X156668570Y-112952380D02*
X156620951Y-113047618D01*
X156620951Y-113047618D02*
X156620951Y-113238094D01*
X156620951Y-113238094D02*
X156668570Y-113333332D01*
X156668570Y-113333332D02*
X156763808Y-113380951D01*
X156763808Y-113380951D02*
X156859046Y-113380951D01*
X156859046Y-113380951D02*
X156954284Y-112904761D01*
X157287618Y-114238094D02*
X156763808Y-114238094D01*
X156763808Y-114238094D02*
X156668570Y-114190475D01*
X156668570Y-114190475D02*
X156620951Y-114095237D01*
X156620951Y-114095237D02*
X156620951Y-113904761D01*
X156620951Y-113904761D02*
X156668570Y-113809523D01*
X157239999Y-114238094D02*
X157287618Y-114142856D01*
X157287618Y-114142856D02*
X157287618Y-113904761D01*
X157287618Y-113904761D02*
X157239999Y-113809523D01*
X157239999Y-113809523D02*
X157144760Y-113761904D01*
X157144760Y-113761904D02*
X157049522Y-113761904D01*
X157049522Y-113761904D02*
X156954284Y-113809523D01*
X156954284Y-113809523D02*
X156906665Y-113904761D01*
X156906665Y-113904761D02*
X156906665Y-114142856D01*
X156906665Y-114142856D02*
X156859046Y-114238094D01*
X157287618Y-115142856D02*
X156287618Y-115142856D01*
X157239999Y-115142856D02*
X157287618Y-115047618D01*
X157287618Y-115047618D02*
X157287618Y-114857142D01*
X157287618Y-114857142D02*
X157239999Y-114761904D01*
X157239999Y-114761904D02*
X157192379Y-114714285D01*
X157192379Y-114714285D02*
X157097141Y-114666666D01*
X157097141Y-114666666D02*
X156811427Y-114666666D01*
X156811427Y-114666666D02*
X156716189Y-114714285D01*
X156716189Y-114714285D02*
X156668570Y-114761904D01*
X156668570Y-114761904D02*
X156620951Y-114857142D01*
X156620951Y-114857142D02*
X156620951Y-115047618D01*
X156620951Y-115047618D02*
X156668570Y-115142856D01*
X157287618Y-116380952D02*
X156287618Y-116380952D01*
X156287618Y-116380952D02*
X156287618Y-116619047D01*
X156287618Y-116619047D02*
X156335237Y-116761904D01*
X156335237Y-116761904D02*
X156430475Y-116857142D01*
X156430475Y-116857142D02*
X156525713Y-116904761D01*
X156525713Y-116904761D02*
X156716189Y-116952380D01*
X156716189Y-116952380D02*
X156859046Y-116952380D01*
X156859046Y-116952380D02*
X157049522Y-116904761D01*
X157049522Y-116904761D02*
X157144760Y-116857142D01*
X157144760Y-116857142D02*
X157239999Y-116761904D01*
X157239999Y-116761904D02*
X157287618Y-116619047D01*
X157287618Y-116619047D02*
X157287618Y-116380952D01*
X157287618Y-117809523D02*
X156763808Y-117809523D01*
X156763808Y-117809523D02*
X156668570Y-117761904D01*
X156668570Y-117761904D02*
X156620951Y-117666666D01*
X156620951Y-117666666D02*
X156620951Y-117476190D01*
X156620951Y-117476190D02*
X156668570Y-117380952D01*
X157239999Y-117809523D02*
X157287618Y-117714285D01*
X157287618Y-117714285D02*
X157287618Y-117476190D01*
X157287618Y-117476190D02*
X157239999Y-117380952D01*
X157239999Y-117380952D02*
X157144760Y-117333333D01*
X157144760Y-117333333D02*
X157049522Y-117333333D01*
X157049522Y-117333333D02*
X156954284Y-117380952D01*
X156954284Y-117380952D02*
X156906665Y-117476190D01*
X156906665Y-117476190D02*
X156906665Y-117714285D01*
X156906665Y-117714285D02*
X156859046Y-117809523D01*
X156620951Y-118142857D02*
X156620951Y-118523809D01*
X156287618Y-118285714D02*
X157144760Y-118285714D01*
X157144760Y-118285714D02*
X157239999Y-118333333D01*
X157239999Y-118333333D02*
X157287618Y-118428571D01*
X157287618Y-118428571D02*
X157287618Y-118523809D01*
X157287618Y-119285714D02*
X156763808Y-119285714D01*
X156763808Y-119285714D02*
X156668570Y-119238095D01*
X156668570Y-119238095D02*
X156620951Y-119142857D01*
X156620951Y-119142857D02*
X156620951Y-118952381D01*
X156620951Y-118952381D02*
X156668570Y-118857143D01*
X157239999Y-119285714D02*
X157287618Y-119190476D01*
X157287618Y-119190476D02*
X157287618Y-118952381D01*
X157287618Y-118952381D02*
X157239999Y-118857143D01*
X157239999Y-118857143D02*
X157144760Y-118809524D01*
X157144760Y-118809524D02*
X157049522Y-118809524D01*
X157049522Y-118809524D02*
X156954284Y-118857143D01*
X156954284Y-118857143D02*
X156906665Y-118952381D01*
X156906665Y-118952381D02*
X156906665Y-119190476D01*
X156906665Y-119190476D02*
X156859046Y-119285714D01*
X158383808Y-109571427D02*
X158431427Y-109714284D01*
X158431427Y-109714284D02*
X158479046Y-109761903D01*
X158479046Y-109761903D02*
X158574284Y-109809522D01*
X158574284Y-109809522D02*
X158717141Y-109809522D01*
X158717141Y-109809522D02*
X158812379Y-109761903D01*
X158812379Y-109761903D02*
X158859999Y-109714284D01*
X158859999Y-109714284D02*
X158907618Y-109619046D01*
X158907618Y-109619046D02*
X158907618Y-109238094D01*
X158907618Y-109238094D02*
X157907618Y-109238094D01*
X157907618Y-109238094D02*
X157907618Y-109571427D01*
X157907618Y-109571427D02*
X157955237Y-109666665D01*
X157955237Y-109666665D02*
X158002856Y-109714284D01*
X158002856Y-109714284D02*
X158098094Y-109761903D01*
X158098094Y-109761903D02*
X158193332Y-109761903D01*
X158193332Y-109761903D02*
X158288570Y-109714284D01*
X158288570Y-109714284D02*
X158336189Y-109666665D01*
X158336189Y-109666665D02*
X158383808Y-109571427D01*
X158383808Y-109571427D02*
X158383808Y-109238094D01*
X157907618Y-110142856D02*
X157907618Y-110761903D01*
X157907618Y-110761903D02*
X158288570Y-110428570D01*
X158288570Y-110428570D02*
X158288570Y-110571427D01*
X158288570Y-110571427D02*
X158336189Y-110666665D01*
X158336189Y-110666665D02*
X158383808Y-110714284D01*
X158383808Y-110714284D02*
X158479046Y-110761903D01*
X158479046Y-110761903D02*
X158717141Y-110761903D01*
X158717141Y-110761903D02*
X158812379Y-110714284D01*
X158812379Y-110714284D02*
X158859999Y-110666665D01*
X158859999Y-110666665D02*
X158907618Y-110571427D01*
X158907618Y-110571427D02*
X158907618Y-110285713D01*
X158907618Y-110285713D02*
X158859999Y-110190475D01*
X158859999Y-110190475D02*
X158812379Y-110142856D01*
X158859999Y-111904761D02*
X158907618Y-112047618D01*
X158907618Y-112047618D02*
X158907618Y-112285713D01*
X158907618Y-112285713D02*
X158859999Y-112380951D01*
X158859999Y-112380951D02*
X158812379Y-112428570D01*
X158812379Y-112428570D02*
X158717141Y-112476189D01*
X158717141Y-112476189D02*
X158621903Y-112476189D01*
X158621903Y-112476189D02*
X158526665Y-112428570D01*
X158526665Y-112428570D02*
X158479046Y-112380951D01*
X158479046Y-112380951D02*
X158431427Y-112285713D01*
X158431427Y-112285713D02*
X158383808Y-112095237D01*
X158383808Y-112095237D02*
X158336189Y-111999999D01*
X158336189Y-111999999D02*
X158288570Y-111952380D01*
X158288570Y-111952380D02*
X158193332Y-111904761D01*
X158193332Y-111904761D02*
X158098094Y-111904761D01*
X158098094Y-111904761D02*
X158002856Y-111952380D01*
X158002856Y-111952380D02*
X157955237Y-111999999D01*
X157955237Y-111999999D02*
X157907618Y-112095237D01*
X157907618Y-112095237D02*
X157907618Y-112333332D01*
X157907618Y-112333332D02*
X157955237Y-112476189D01*
X158907618Y-112904761D02*
X158240951Y-112904761D01*
X157907618Y-112904761D02*
X157955237Y-112857142D01*
X157955237Y-112857142D02*
X158002856Y-112904761D01*
X158002856Y-112904761D02*
X157955237Y-112952380D01*
X157955237Y-112952380D02*
X157907618Y-112904761D01*
X157907618Y-112904761D02*
X158002856Y-112904761D01*
X158907618Y-113809522D02*
X157907618Y-113809522D01*
X158859999Y-113809522D02*
X158907618Y-113714284D01*
X158907618Y-113714284D02*
X158907618Y-113523808D01*
X158907618Y-113523808D02*
X158859999Y-113428570D01*
X158859999Y-113428570D02*
X158812379Y-113380951D01*
X158812379Y-113380951D02*
X158717141Y-113333332D01*
X158717141Y-113333332D02*
X158431427Y-113333332D01*
X158431427Y-113333332D02*
X158336189Y-113380951D01*
X158336189Y-113380951D02*
X158288570Y-113428570D01*
X158288570Y-113428570D02*
X158240951Y-113523808D01*
X158240951Y-113523808D02*
X158240951Y-113714284D01*
X158240951Y-113714284D02*
X158288570Y-113809522D01*
X158859999Y-114666665D02*
X158907618Y-114571427D01*
X158907618Y-114571427D02*
X158907618Y-114380951D01*
X158907618Y-114380951D02*
X158859999Y-114285713D01*
X158859999Y-114285713D02*
X158764760Y-114238094D01*
X158764760Y-114238094D02*
X158383808Y-114238094D01*
X158383808Y-114238094D02*
X158288570Y-114285713D01*
X158288570Y-114285713D02*
X158240951Y-114380951D01*
X158240951Y-114380951D02*
X158240951Y-114571427D01*
X158240951Y-114571427D02*
X158288570Y-114666665D01*
X158288570Y-114666665D02*
X158383808Y-114714284D01*
X158383808Y-114714284D02*
X158479046Y-114714284D01*
X158479046Y-114714284D02*
X158574284Y-114238094D01*
X158859999Y-115857142D02*
X158907618Y-115999999D01*
X158907618Y-115999999D02*
X158907618Y-116238094D01*
X158907618Y-116238094D02*
X158859999Y-116333332D01*
X158859999Y-116333332D02*
X158812379Y-116380951D01*
X158812379Y-116380951D02*
X158717141Y-116428570D01*
X158717141Y-116428570D02*
X158621903Y-116428570D01*
X158621903Y-116428570D02*
X158526665Y-116380951D01*
X158526665Y-116380951D02*
X158479046Y-116333332D01*
X158479046Y-116333332D02*
X158431427Y-116238094D01*
X158431427Y-116238094D02*
X158383808Y-116047618D01*
X158383808Y-116047618D02*
X158336189Y-115952380D01*
X158336189Y-115952380D02*
X158288570Y-115904761D01*
X158288570Y-115904761D02*
X158193332Y-115857142D01*
X158193332Y-115857142D02*
X158098094Y-115857142D01*
X158098094Y-115857142D02*
X158002856Y-115904761D01*
X158002856Y-115904761D02*
X157955237Y-115952380D01*
X157955237Y-115952380D02*
X157907618Y-116047618D01*
X157907618Y-116047618D02*
X157907618Y-116285713D01*
X157907618Y-116285713D02*
X157955237Y-116428570D01*
X158859999Y-117238094D02*
X158907618Y-117142856D01*
X158907618Y-117142856D02*
X158907618Y-116952380D01*
X158907618Y-116952380D02*
X158859999Y-116857142D01*
X158859999Y-116857142D02*
X158764760Y-116809523D01*
X158764760Y-116809523D02*
X158383808Y-116809523D01*
X158383808Y-116809523D02*
X158288570Y-116857142D01*
X158288570Y-116857142D02*
X158240951Y-116952380D01*
X158240951Y-116952380D02*
X158240951Y-117142856D01*
X158240951Y-117142856D02*
X158288570Y-117238094D01*
X158288570Y-117238094D02*
X158383808Y-117285713D01*
X158383808Y-117285713D02*
X158479046Y-117285713D01*
X158479046Y-117285713D02*
X158574284Y-116809523D01*
X158907618Y-117857142D02*
X158859999Y-117761904D01*
X158859999Y-117761904D02*
X158764760Y-117714285D01*
X158764760Y-117714285D02*
X157907618Y-117714285D01*
X158859999Y-118619047D02*
X158907618Y-118523809D01*
X158907618Y-118523809D02*
X158907618Y-118333333D01*
X158907618Y-118333333D02*
X158859999Y-118238095D01*
X158859999Y-118238095D02*
X158764760Y-118190476D01*
X158764760Y-118190476D02*
X158383808Y-118190476D01*
X158383808Y-118190476D02*
X158288570Y-118238095D01*
X158288570Y-118238095D02*
X158240951Y-118333333D01*
X158240951Y-118333333D02*
X158240951Y-118523809D01*
X158240951Y-118523809D02*
X158288570Y-118619047D01*
X158288570Y-118619047D02*
X158383808Y-118666666D01*
X158383808Y-118666666D02*
X158479046Y-118666666D01*
X158479046Y-118666666D02*
X158574284Y-118190476D01*
X158859999Y-119523809D02*
X158907618Y-119428571D01*
X158907618Y-119428571D02*
X158907618Y-119238095D01*
X158907618Y-119238095D02*
X158859999Y-119142857D01*
X158859999Y-119142857D02*
X158812379Y-119095238D01*
X158812379Y-119095238D02*
X158717141Y-119047619D01*
X158717141Y-119047619D02*
X158431427Y-119047619D01*
X158431427Y-119047619D02*
X158336189Y-119095238D01*
X158336189Y-119095238D02*
X158288570Y-119142857D01*
X158288570Y-119142857D02*
X158240951Y-119238095D01*
X158240951Y-119238095D02*
X158240951Y-119428571D01*
X158240951Y-119428571D02*
X158288570Y-119523809D01*
X158240951Y-119809524D02*
X158240951Y-120190476D01*
X157907618Y-119952381D02*
X158764760Y-119952381D01*
X158764760Y-119952381D02*
X158859999Y-120000000D01*
X158859999Y-120000000D02*
X158907618Y-120095238D01*
X158907618Y-120095238D02*
X158907618Y-120190476D01*
X153761903Y-123690475D02*
X153761903Y-124166665D01*
X154047618Y-123595237D02*
X153047618Y-123928570D01*
X153047618Y-123928570D02*
X154047618Y-124261903D01*
X153047618Y-124785713D02*
X153047618Y-124880951D01*
X153047618Y-124880951D02*
X153095237Y-124976189D01*
X153095237Y-124976189D02*
X153142856Y-125023808D01*
X153142856Y-125023808D02*
X153238094Y-125071427D01*
X153238094Y-125071427D02*
X153428570Y-125119046D01*
X153428570Y-125119046D02*
X153666665Y-125119046D01*
X153666665Y-125119046D02*
X153857141Y-125071427D01*
X153857141Y-125071427D02*
X153952379Y-125023808D01*
X153952379Y-125023808D02*
X153999999Y-124976189D01*
X153999999Y-124976189D02*
X154047618Y-124880951D01*
X154047618Y-124880951D02*
X154047618Y-124785713D01*
X154047618Y-124785713D02*
X153999999Y-124690475D01*
X153999999Y-124690475D02*
X153952379Y-124642856D01*
X153952379Y-124642856D02*
X153857141Y-124595237D01*
X153857141Y-124595237D02*
X153666665Y-124547618D01*
X153666665Y-124547618D02*
X153428570Y-124547618D01*
X153428570Y-124547618D02*
X153238094Y-124595237D01*
X153238094Y-124595237D02*
X153142856Y-124642856D01*
X153142856Y-124642856D02*
X153095237Y-124690475D01*
X153095237Y-124690475D02*
X153047618Y-124785713D01*
X154047618Y-126309523D02*
X153047618Y-126309523D01*
X153380951Y-126785713D02*
X154047618Y-126785713D01*
X153476189Y-126785713D02*
X153428570Y-126833332D01*
X153428570Y-126833332D02*
X153380951Y-126928570D01*
X153380951Y-126928570D02*
X153380951Y-127071427D01*
X153380951Y-127071427D02*
X153428570Y-127166665D01*
X153428570Y-127166665D02*
X153523808Y-127214284D01*
X153523808Y-127214284D02*
X154047618Y-127214284D01*
X154047618Y-128119046D02*
X153047618Y-128119046D01*
X153999999Y-128119046D02*
X154047618Y-128023808D01*
X154047618Y-128023808D02*
X154047618Y-127833332D01*
X154047618Y-127833332D02*
X153999999Y-127738094D01*
X153999999Y-127738094D02*
X153952379Y-127690475D01*
X153952379Y-127690475D02*
X153857141Y-127642856D01*
X153857141Y-127642856D02*
X153571427Y-127642856D01*
X153571427Y-127642856D02*
X153476189Y-127690475D01*
X153476189Y-127690475D02*
X153428570Y-127738094D01*
X153428570Y-127738094D02*
X153380951Y-127833332D01*
X153380951Y-127833332D02*
X153380951Y-128023808D01*
X153380951Y-128023808D02*
X153428570Y-128119046D01*
X153999999Y-128976189D02*
X154047618Y-128880951D01*
X154047618Y-128880951D02*
X154047618Y-128690475D01*
X154047618Y-128690475D02*
X153999999Y-128595237D01*
X153999999Y-128595237D02*
X153904760Y-128547618D01*
X153904760Y-128547618D02*
X153523808Y-128547618D01*
X153523808Y-128547618D02*
X153428570Y-128595237D01*
X153428570Y-128595237D02*
X153380951Y-128690475D01*
X153380951Y-128690475D02*
X153380951Y-128880951D01*
X153380951Y-128880951D02*
X153428570Y-128976189D01*
X153428570Y-128976189D02*
X153523808Y-129023808D01*
X153523808Y-129023808D02*
X153619046Y-129023808D01*
X153619046Y-129023808D02*
X153714284Y-128547618D01*
X154047618Y-129357142D02*
X153380951Y-129880951D01*
X153380951Y-129357142D02*
X154047618Y-129880951D01*
X155381903Y-123690475D02*
X155381903Y-124166665D01*
X155667618Y-123595237D02*
X154667618Y-123928570D01*
X154667618Y-123928570D02*
X155667618Y-124261903D01*
X155667618Y-125119046D02*
X155667618Y-124547618D01*
X155667618Y-124833332D02*
X154667618Y-124833332D01*
X154667618Y-124833332D02*
X154810475Y-124738094D01*
X154810475Y-124738094D02*
X154905713Y-124642856D01*
X154905713Y-124642856D02*
X154953332Y-124547618D01*
X155667618Y-126309523D02*
X154667618Y-126309523D01*
X154667618Y-126309523D02*
X155381903Y-126642856D01*
X155381903Y-126642856D02*
X154667618Y-126976189D01*
X154667618Y-126976189D02*
X155667618Y-126976189D01*
X155667618Y-127595237D02*
X155619999Y-127499999D01*
X155619999Y-127499999D02*
X155572379Y-127452380D01*
X155572379Y-127452380D02*
X155477141Y-127404761D01*
X155477141Y-127404761D02*
X155191427Y-127404761D01*
X155191427Y-127404761D02*
X155096189Y-127452380D01*
X155096189Y-127452380D02*
X155048570Y-127499999D01*
X155048570Y-127499999D02*
X155000951Y-127595237D01*
X155000951Y-127595237D02*
X155000951Y-127738094D01*
X155000951Y-127738094D02*
X155048570Y-127833332D01*
X155048570Y-127833332D02*
X155096189Y-127880951D01*
X155096189Y-127880951D02*
X155191427Y-127928570D01*
X155191427Y-127928570D02*
X155477141Y-127928570D01*
X155477141Y-127928570D02*
X155572379Y-127880951D01*
X155572379Y-127880951D02*
X155619999Y-127833332D01*
X155619999Y-127833332D02*
X155667618Y-127738094D01*
X155667618Y-127738094D02*
X155667618Y-127595237D01*
X155000951Y-128214285D02*
X155000951Y-128595237D01*
X154667618Y-128357142D02*
X155524760Y-128357142D01*
X155524760Y-128357142D02*
X155619999Y-128404761D01*
X155619999Y-128404761D02*
X155667618Y-128499999D01*
X155667618Y-128499999D02*
X155667618Y-128595237D01*
X155667618Y-129071428D02*
X155619999Y-128976190D01*
X155619999Y-128976190D02*
X155572379Y-128928571D01*
X155572379Y-128928571D02*
X155477141Y-128880952D01*
X155477141Y-128880952D02*
X155191427Y-128880952D01*
X155191427Y-128880952D02*
X155096189Y-128928571D01*
X155096189Y-128928571D02*
X155048570Y-128976190D01*
X155048570Y-128976190D02*
X155000951Y-129071428D01*
X155000951Y-129071428D02*
X155000951Y-129214285D01*
X155000951Y-129214285D02*
X155048570Y-129309523D01*
X155048570Y-129309523D02*
X155096189Y-129357142D01*
X155096189Y-129357142D02*
X155191427Y-129404761D01*
X155191427Y-129404761D02*
X155477141Y-129404761D01*
X155477141Y-129404761D02*
X155572379Y-129357142D01*
X155572379Y-129357142D02*
X155619999Y-129309523D01*
X155619999Y-129309523D02*
X155667618Y-129214285D01*
X155667618Y-129214285D02*
X155667618Y-129071428D01*
X155667618Y-129833333D02*
X155000951Y-129833333D01*
X155191427Y-129833333D02*
X155096189Y-129880952D01*
X155096189Y-129880952D02*
X155048570Y-129928571D01*
X155048570Y-129928571D02*
X155000951Y-130023809D01*
X155000951Y-130023809D02*
X155000951Y-130119047D01*
X154667618Y-131404762D02*
X154667618Y-131595238D01*
X154667618Y-131595238D02*
X154715237Y-131690476D01*
X154715237Y-131690476D02*
X154810475Y-131785714D01*
X154810475Y-131785714D02*
X155000951Y-131833333D01*
X155000951Y-131833333D02*
X155334284Y-131833333D01*
X155334284Y-131833333D02*
X155524760Y-131785714D01*
X155524760Y-131785714D02*
X155619999Y-131690476D01*
X155619999Y-131690476D02*
X155667618Y-131595238D01*
X155667618Y-131595238D02*
X155667618Y-131404762D01*
X155667618Y-131404762D02*
X155619999Y-131309524D01*
X155619999Y-131309524D02*
X155524760Y-131214286D01*
X155524760Y-131214286D02*
X155334284Y-131166667D01*
X155334284Y-131166667D02*
X155000951Y-131166667D01*
X155000951Y-131166667D02*
X154810475Y-131214286D01*
X154810475Y-131214286D02*
X154715237Y-131309524D01*
X154715237Y-131309524D02*
X154667618Y-131404762D01*
X155000951Y-132261905D02*
X155667618Y-132261905D01*
X155096189Y-132261905D02*
X155048570Y-132309524D01*
X155048570Y-132309524D02*
X155000951Y-132404762D01*
X155000951Y-132404762D02*
X155000951Y-132547619D01*
X155000951Y-132547619D02*
X155048570Y-132642857D01*
X155048570Y-132642857D02*
X155143808Y-132690476D01*
X155143808Y-132690476D02*
X155667618Y-132690476D01*
X157001903Y-123690475D02*
X157001903Y-124166665D01*
X157287618Y-123595237D02*
X156287618Y-123928570D01*
X156287618Y-123928570D02*
X157287618Y-124261903D01*
X156382856Y-124547618D02*
X156335237Y-124595237D01*
X156335237Y-124595237D02*
X156287618Y-124690475D01*
X156287618Y-124690475D02*
X156287618Y-124928570D01*
X156287618Y-124928570D02*
X156335237Y-125023808D01*
X156335237Y-125023808D02*
X156382856Y-125071427D01*
X156382856Y-125071427D02*
X156478094Y-125119046D01*
X156478094Y-125119046D02*
X156573332Y-125119046D01*
X156573332Y-125119046D02*
X156716189Y-125071427D01*
X156716189Y-125071427D02*
X157287618Y-124499999D01*
X157287618Y-124499999D02*
X157287618Y-125119046D01*
X157287618Y-126309523D02*
X156287618Y-126309523D01*
X156287618Y-126309523D02*
X156287618Y-126547618D01*
X156287618Y-126547618D02*
X156335237Y-126690475D01*
X156335237Y-126690475D02*
X156430475Y-126785713D01*
X156430475Y-126785713D02*
X156525713Y-126833332D01*
X156525713Y-126833332D02*
X156716189Y-126880951D01*
X156716189Y-126880951D02*
X156859046Y-126880951D01*
X156859046Y-126880951D02*
X157049522Y-126833332D01*
X157049522Y-126833332D02*
X157144760Y-126785713D01*
X157144760Y-126785713D02*
X157239999Y-126690475D01*
X157239999Y-126690475D02*
X157287618Y-126547618D01*
X157287618Y-126547618D02*
X157287618Y-126309523D01*
X157287618Y-127309523D02*
X156620951Y-127309523D01*
X156287618Y-127309523D02*
X156335237Y-127261904D01*
X156335237Y-127261904D02*
X156382856Y-127309523D01*
X156382856Y-127309523D02*
X156335237Y-127357142D01*
X156335237Y-127357142D02*
X156287618Y-127309523D01*
X156287618Y-127309523D02*
X156382856Y-127309523D01*
X157287618Y-127785713D02*
X156620951Y-127785713D01*
X156811427Y-127785713D02*
X156716189Y-127833332D01*
X156716189Y-127833332D02*
X156668570Y-127880951D01*
X156668570Y-127880951D02*
X156620951Y-127976189D01*
X156620951Y-127976189D02*
X156620951Y-128071427D01*
X157239999Y-128785713D02*
X157287618Y-128690475D01*
X157287618Y-128690475D02*
X157287618Y-128499999D01*
X157287618Y-128499999D02*
X157239999Y-128404761D01*
X157239999Y-128404761D02*
X157144760Y-128357142D01*
X157144760Y-128357142D02*
X156763808Y-128357142D01*
X156763808Y-128357142D02*
X156668570Y-128404761D01*
X156668570Y-128404761D02*
X156620951Y-128499999D01*
X156620951Y-128499999D02*
X156620951Y-128690475D01*
X156620951Y-128690475D02*
X156668570Y-128785713D01*
X156668570Y-128785713D02*
X156763808Y-128833332D01*
X156763808Y-128833332D02*
X156859046Y-128833332D01*
X156859046Y-128833332D02*
X156954284Y-128357142D01*
X157239999Y-129690475D02*
X157287618Y-129595237D01*
X157287618Y-129595237D02*
X157287618Y-129404761D01*
X157287618Y-129404761D02*
X157239999Y-129309523D01*
X157239999Y-129309523D02*
X157192379Y-129261904D01*
X157192379Y-129261904D02*
X157097141Y-129214285D01*
X157097141Y-129214285D02*
X156811427Y-129214285D01*
X156811427Y-129214285D02*
X156716189Y-129261904D01*
X156716189Y-129261904D02*
X156668570Y-129309523D01*
X156668570Y-129309523D02*
X156620951Y-129404761D01*
X156620951Y-129404761D02*
X156620951Y-129595237D01*
X156620951Y-129595237D02*
X156668570Y-129690475D01*
X156620951Y-129976190D02*
X156620951Y-130357142D01*
X156287618Y-130119047D02*
X157144760Y-130119047D01*
X157144760Y-130119047D02*
X157239999Y-130166666D01*
X157239999Y-130166666D02*
X157287618Y-130261904D01*
X157287618Y-130261904D02*
X157287618Y-130357142D01*
X157287618Y-130690476D02*
X156620951Y-130690476D01*
X156287618Y-130690476D02*
X156335237Y-130642857D01*
X156335237Y-130642857D02*
X156382856Y-130690476D01*
X156382856Y-130690476D02*
X156335237Y-130738095D01*
X156335237Y-130738095D02*
X156287618Y-130690476D01*
X156287618Y-130690476D02*
X156382856Y-130690476D01*
X157287618Y-131309523D02*
X157239999Y-131214285D01*
X157239999Y-131214285D02*
X157192379Y-131166666D01*
X157192379Y-131166666D02*
X157097141Y-131119047D01*
X157097141Y-131119047D02*
X156811427Y-131119047D01*
X156811427Y-131119047D02*
X156716189Y-131166666D01*
X156716189Y-131166666D02*
X156668570Y-131214285D01*
X156668570Y-131214285D02*
X156620951Y-131309523D01*
X156620951Y-131309523D02*
X156620951Y-131452380D01*
X156620951Y-131452380D02*
X156668570Y-131547618D01*
X156668570Y-131547618D02*
X156716189Y-131595237D01*
X156716189Y-131595237D02*
X156811427Y-131642856D01*
X156811427Y-131642856D02*
X157097141Y-131642856D01*
X157097141Y-131642856D02*
X157192379Y-131595237D01*
X157192379Y-131595237D02*
X157239999Y-131547618D01*
X157239999Y-131547618D02*
X157287618Y-131452380D01*
X157287618Y-131452380D02*
X157287618Y-131309523D01*
X156620951Y-132071428D02*
X157287618Y-132071428D01*
X156716189Y-132071428D02*
X156668570Y-132119047D01*
X156668570Y-132119047D02*
X156620951Y-132214285D01*
X156620951Y-132214285D02*
X156620951Y-132357142D01*
X156620951Y-132357142D02*
X156668570Y-132452380D01*
X156668570Y-132452380D02*
X156763808Y-132499999D01*
X156763808Y-132499999D02*
X157287618Y-132499999D01*
X157239999Y-133690476D02*
X157287618Y-133833333D01*
X157287618Y-133833333D02*
X157287618Y-134071428D01*
X157287618Y-134071428D02*
X157239999Y-134166666D01*
X157239999Y-134166666D02*
X157192379Y-134214285D01*
X157192379Y-134214285D02*
X157097141Y-134261904D01*
X157097141Y-134261904D02*
X157001903Y-134261904D01*
X157001903Y-134261904D02*
X156906665Y-134214285D01*
X156906665Y-134214285D02*
X156859046Y-134166666D01*
X156859046Y-134166666D02*
X156811427Y-134071428D01*
X156811427Y-134071428D02*
X156763808Y-133880952D01*
X156763808Y-133880952D02*
X156716189Y-133785714D01*
X156716189Y-133785714D02*
X156668570Y-133738095D01*
X156668570Y-133738095D02*
X156573332Y-133690476D01*
X156573332Y-133690476D02*
X156478094Y-133690476D01*
X156478094Y-133690476D02*
X156382856Y-133738095D01*
X156382856Y-133738095D02*
X156335237Y-133785714D01*
X156335237Y-133785714D02*
X156287618Y-133880952D01*
X156287618Y-133880952D02*
X156287618Y-134119047D01*
X156287618Y-134119047D02*
X156335237Y-134261904D01*
X157239999Y-135071428D02*
X157287618Y-134976190D01*
X157287618Y-134976190D02*
X157287618Y-134785714D01*
X157287618Y-134785714D02*
X157239999Y-134690476D01*
X157239999Y-134690476D02*
X157144760Y-134642857D01*
X157144760Y-134642857D02*
X156763808Y-134642857D01*
X156763808Y-134642857D02*
X156668570Y-134690476D01*
X156668570Y-134690476D02*
X156620951Y-134785714D01*
X156620951Y-134785714D02*
X156620951Y-134976190D01*
X156620951Y-134976190D02*
X156668570Y-135071428D01*
X156668570Y-135071428D02*
X156763808Y-135119047D01*
X156763808Y-135119047D02*
X156859046Y-135119047D01*
X156859046Y-135119047D02*
X156954284Y-134642857D01*
X157287618Y-135690476D02*
X157239999Y-135595238D01*
X157239999Y-135595238D02*
X157144760Y-135547619D01*
X157144760Y-135547619D02*
X156287618Y-135547619D01*
X157239999Y-136452381D02*
X157287618Y-136357143D01*
X157287618Y-136357143D02*
X157287618Y-136166667D01*
X157287618Y-136166667D02*
X157239999Y-136071429D01*
X157239999Y-136071429D02*
X157144760Y-136023810D01*
X157144760Y-136023810D02*
X156763808Y-136023810D01*
X156763808Y-136023810D02*
X156668570Y-136071429D01*
X156668570Y-136071429D02*
X156620951Y-136166667D01*
X156620951Y-136166667D02*
X156620951Y-136357143D01*
X156620951Y-136357143D02*
X156668570Y-136452381D01*
X156668570Y-136452381D02*
X156763808Y-136500000D01*
X156763808Y-136500000D02*
X156859046Y-136500000D01*
X156859046Y-136500000D02*
X156954284Y-136023810D01*
X157239999Y-137357143D02*
X157287618Y-137261905D01*
X157287618Y-137261905D02*
X157287618Y-137071429D01*
X157287618Y-137071429D02*
X157239999Y-136976191D01*
X157239999Y-136976191D02*
X157192379Y-136928572D01*
X157192379Y-136928572D02*
X157097141Y-136880953D01*
X157097141Y-136880953D02*
X156811427Y-136880953D01*
X156811427Y-136880953D02*
X156716189Y-136928572D01*
X156716189Y-136928572D02*
X156668570Y-136976191D01*
X156668570Y-136976191D02*
X156620951Y-137071429D01*
X156620951Y-137071429D02*
X156620951Y-137261905D01*
X156620951Y-137261905D02*
X156668570Y-137357143D01*
X156620951Y-137642858D02*
X156620951Y-138023810D01*
X156287618Y-137785715D02*
X157144760Y-137785715D01*
X157144760Y-137785715D02*
X157239999Y-137833334D01*
X157239999Y-137833334D02*
X157287618Y-137928572D01*
X157287618Y-137928572D02*
X157287618Y-138023810D01*
X158621903Y-123690475D02*
X158621903Y-124166665D01*
X158907618Y-123595237D02*
X157907618Y-123928570D01*
X157907618Y-123928570D02*
X158907618Y-124261903D01*
X157907618Y-124499999D02*
X157907618Y-125119046D01*
X157907618Y-125119046D02*
X158288570Y-124785713D01*
X158288570Y-124785713D02*
X158288570Y-124928570D01*
X158288570Y-124928570D02*
X158336189Y-125023808D01*
X158336189Y-125023808D02*
X158383808Y-125071427D01*
X158383808Y-125071427D02*
X158479046Y-125119046D01*
X158479046Y-125119046D02*
X158717141Y-125119046D01*
X158717141Y-125119046D02*
X158812379Y-125071427D01*
X158812379Y-125071427D02*
X158859999Y-125023808D01*
X158859999Y-125023808D02*
X158907618Y-124928570D01*
X158907618Y-124928570D02*
X158907618Y-124642856D01*
X158907618Y-124642856D02*
X158859999Y-124547618D01*
X158859999Y-124547618D02*
X158812379Y-124499999D01*
X158859999Y-126261904D02*
X158907618Y-126404761D01*
X158907618Y-126404761D02*
X158907618Y-126642856D01*
X158907618Y-126642856D02*
X158859999Y-126738094D01*
X158859999Y-126738094D02*
X158812379Y-126785713D01*
X158812379Y-126785713D02*
X158717141Y-126833332D01*
X158717141Y-126833332D02*
X158621903Y-126833332D01*
X158621903Y-126833332D02*
X158526665Y-126785713D01*
X158526665Y-126785713D02*
X158479046Y-126738094D01*
X158479046Y-126738094D02*
X158431427Y-126642856D01*
X158431427Y-126642856D02*
X158383808Y-126452380D01*
X158383808Y-126452380D02*
X158336189Y-126357142D01*
X158336189Y-126357142D02*
X158288570Y-126309523D01*
X158288570Y-126309523D02*
X158193332Y-126261904D01*
X158193332Y-126261904D02*
X158098094Y-126261904D01*
X158098094Y-126261904D02*
X158002856Y-126309523D01*
X158002856Y-126309523D02*
X157955237Y-126357142D01*
X157955237Y-126357142D02*
X157907618Y-126452380D01*
X157907618Y-126452380D02*
X157907618Y-126690475D01*
X157907618Y-126690475D02*
X157955237Y-126833332D01*
X158240951Y-127119047D02*
X158240951Y-127499999D01*
X157907618Y-127261904D02*
X158764760Y-127261904D01*
X158764760Y-127261904D02*
X158859999Y-127309523D01*
X158859999Y-127309523D02*
X158907618Y-127404761D01*
X158907618Y-127404761D02*
X158907618Y-127499999D01*
X158859999Y-128214285D02*
X158907618Y-128119047D01*
X158907618Y-128119047D02*
X158907618Y-127928571D01*
X158907618Y-127928571D02*
X158859999Y-127833333D01*
X158859999Y-127833333D02*
X158764760Y-127785714D01*
X158764760Y-127785714D02*
X158383808Y-127785714D01*
X158383808Y-127785714D02*
X158288570Y-127833333D01*
X158288570Y-127833333D02*
X158240951Y-127928571D01*
X158240951Y-127928571D02*
X158240951Y-128119047D01*
X158240951Y-128119047D02*
X158288570Y-128214285D01*
X158288570Y-128214285D02*
X158383808Y-128261904D01*
X158383808Y-128261904D02*
X158479046Y-128261904D01*
X158479046Y-128261904D02*
X158574284Y-127785714D01*
X158240951Y-128690476D02*
X159240951Y-128690476D01*
X158288570Y-128690476D02*
X158240951Y-128785714D01*
X158240951Y-128785714D02*
X158240951Y-128976190D01*
X158240951Y-128976190D02*
X158288570Y-129071428D01*
X158288570Y-129071428D02*
X158336189Y-129119047D01*
X158336189Y-129119047D02*
X158431427Y-129166666D01*
X158431427Y-129166666D02*
X158717141Y-129166666D01*
X158717141Y-129166666D02*
X158812379Y-129119047D01*
X158812379Y-129119047D02*
X158859999Y-129071428D01*
X158859999Y-129071428D02*
X158907618Y-128976190D01*
X158907618Y-128976190D02*
X158907618Y-128785714D01*
X158907618Y-128785714D02*
X158859999Y-128690476D01*
%TO.C,PMOD1*%
X168372619Y-139128667D02*
X169372619Y-139462000D01*
X169372619Y-139462000D02*
X168372619Y-139795333D01*
X169277380Y-140700095D02*
X169325000Y-140652476D01*
X169325000Y-140652476D02*
X169372619Y-140509619D01*
X169372619Y-140509619D02*
X169372619Y-140414381D01*
X169372619Y-140414381D02*
X169325000Y-140271524D01*
X169325000Y-140271524D02*
X169229761Y-140176286D01*
X169229761Y-140176286D02*
X169134523Y-140128667D01*
X169134523Y-140128667D02*
X168944047Y-140081048D01*
X168944047Y-140081048D02*
X168801190Y-140081048D01*
X168801190Y-140081048D02*
X168610714Y-140128667D01*
X168610714Y-140128667D02*
X168515476Y-140176286D01*
X168515476Y-140176286D02*
X168420238Y-140271524D01*
X168420238Y-140271524D02*
X168372619Y-140414381D01*
X168372619Y-140414381D02*
X168372619Y-140509619D01*
X168372619Y-140509619D02*
X168420238Y-140652476D01*
X168420238Y-140652476D02*
X168467857Y-140700095D01*
X169277380Y-141700095D02*
X169325000Y-141652476D01*
X169325000Y-141652476D02*
X169372619Y-141509619D01*
X169372619Y-141509619D02*
X169372619Y-141414381D01*
X169372619Y-141414381D02*
X169325000Y-141271524D01*
X169325000Y-141271524D02*
X169229761Y-141176286D01*
X169229761Y-141176286D02*
X169134523Y-141128667D01*
X169134523Y-141128667D02*
X168944047Y-141081048D01*
X168944047Y-141081048D02*
X168801190Y-141081048D01*
X168801190Y-141081048D02*
X168610714Y-141128667D01*
X168610714Y-141128667D02*
X168515476Y-141176286D01*
X168515476Y-141176286D02*
X168420238Y-141271524D01*
X168420238Y-141271524D02*
X168372619Y-141414381D01*
X168372619Y-141414381D02*
X168372619Y-141509619D01*
X168372619Y-141509619D02*
X168420238Y-141652476D01*
X168420238Y-141652476D02*
X168467857Y-141700095D01*
X156672619Y-141509714D02*
X156672619Y-140938286D01*
X156672619Y-141224000D02*
X155672619Y-141224000D01*
X155672619Y-141224000D02*
X155815476Y-141128762D01*
X155815476Y-141128762D02*
X155910714Y-141033524D01*
X155910714Y-141033524D02*
X155958333Y-140938286D01*
X165880238Y-139700095D02*
X165832619Y-139604857D01*
X165832619Y-139604857D02*
X165832619Y-139462000D01*
X165832619Y-139462000D02*
X165880238Y-139319143D01*
X165880238Y-139319143D02*
X165975476Y-139223905D01*
X165975476Y-139223905D02*
X166070714Y-139176286D01*
X166070714Y-139176286D02*
X166261190Y-139128667D01*
X166261190Y-139128667D02*
X166404047Y-139128667D01*
X166404047Y-139128667D02*
X166594523Y-139176286D01*
X166594523Y-139176286D02*
X166689761Y-139223905D01*
X166689761Y-139223905D02*
X166785000Y-139319143D01*
X166785000Y-139319143D02*
X166832619Y-139462000D01*
X166832619Y-139462000D02*
X166832619Y-139557238D01*
X166832619Y-139557238D02*
X166785000Y-139700095D01*
X166785000Y-139700095D02*
X166737380Y-139747714D01*
X166737380Y-139747714D02*
X166404047Y-139747714D01*
X166404047Y-139747714D02*
X166404047Y-139557238D01*
X166832619Y-140176286D02*
X165832619Y-140176286D01*
X165832619Y-140176286D02*
X166832619Y-140747714D01*
X166832619Y-140747714D02*
X165832619Y-140747714D01*
X166832619Y-141223905D02*
X165832619Y-141223905D01*
X165832619Y-141223905D02*
X165832619Y-141462000D01*
X165832619Y-141462000D02*
X165880238Y-141604857D01*
X165880238Y-141604857D02*
X165975476Y-141700095D01*
X165975476Y-141700095D02*
X166070714Y-141747714D01*
X166070714Y-141747714D02*
X166261190Y-141795333D01*
X166261190Y-141795333D02*
X166404047Y-141795333D01*
X166404047Y-141795333D02*
X166594523Y-141747714D01*
X166594523Y-141747714D02*
X166689761Y-141700095D01*
X166689761Y-141700095D02*
X166785000Y-141604857D01*
X166785000Y-141604857D02*
X166832619Y-141462000D01*
X166832619Y-141462000D02*
X166832619Y-141223905D01*
D11*
X154940000Y-147320000D02*
X170180000Y-147320000D01*
X170180000Y-147320000D02*
X170180000Y-142240000D01*
X154940000Y-142240000D02*
X154940000Y-147320000D01*
X165100000Y-142240000D02*
X165100000Y-147320000D01*
X170180000Y-142240000D02*
X154940000Y-142240000D01*
%TD*%
M02*
